<?xml version="1.0" encoding="iso-8859-1"?>
<!-- Uploaded to: SVG Repo, www.svgrepo.com, Generator: SVG Repo Mixer Tools -->
<!DOCTYPE svg PUBLIC "-//W3C//DTD SVG 1.1//EN" "http://www.w3.org/Graphics/SVG/1.1/DTD/svg11.dtd">
<svg fill="#000000" height="800px" width="800px" version="1.1" id="Capa_1" xmlns="http://www.w3.org/2000/svg" xmlns:xlink="http://www.w3.org/1999/xlink" 
	 viewBox="0 0 512 512" xml:space="preserve">
<g>
	<path d="M439.407,82.417c-21.816-17.52-47.827-29.14-77.311-34.538c-31.503-5.766-67.194-4.41-106.097,4.002
		c-38.904-8.412-74.594-9.769-106.097-4.002c-29.483,5.397-55.495,17.018-77.311,34.538C26.459,119.466,0,182.755,0,256.057
		c0,28.712,5.157,69.299,16.678,95.247c0.887,1.997,2.551,3.544,4.607,4.283c2.057,0.739,4.326,0.604,6.28-0.373l7.013-3.504
		c5.122,15.81,17.474,37.031,39.938,58.174c2.325,2.188,5.727,2.784,8.656,1.518c2.93-1.266,4.827-4.152,4.827-7.344v-1.677
		c21.348,19.356,58.605,39.764,87.012,51.887c1.645,0.73,3.283,1.412,4.907,2.05c0.035,0.014,0.07,0.029,0.105,0.043
		c0.026,0.01,0.052,0.017,0.078,0.027c3.272,1.278,6.484,2.38,9.561,3.32c18.076,5.523,41.529,7.919,64.606,7.919
		c25.678,0,50.89-2.966,67.707-7.893c5.425-1.589,11.266-3.67,17.123-6.377c28.119-12.217,64.078-32.096,84.902-50.977v1.677
		c0,3.192,1.897,6.078,4.827,7.344c2.928,1.265,6.331,0.669,8.656-1.518c22.464-21.143,34.817-42.364,39.938-58.174l7.013,3.504
		c1.954,0.977,4.223,1.111,6.28,0.373c2.056-0.739,3.721-2.286,4.607-4.283C506.843,325.355,512,284.769,512,256.057
		C512,182.755,485.541,119.466,439.407,82.417z M483.761,336.99l-8.185-4.09c-2.308-1.153-5.031-1.123-7.312,0.082
		c-2.281,1.205-3.842,3.437-4.19,5.993c-1.892,13.873-12.122,30.703-24.073,44.941v-3.86c0-3.798-2.671-7.073-6.392-7.837
		c-3.72-0.763-7.465,1.194-8.961,4.685c-4.189,9.775-22.864,24.27-45.71,37.961c0.482-1.141,0.947-2.299,1.373-3.492
		c3.67-10.277,4.108-19.657,3.818-25.774l17.795-5.957c4.093-1.37,6.361-5.74,5.126-9.876c-0.077-0.256-7.269-25.984,6.128-40.23
		C431.227,310.345,440,292.851,440,276.057c0-4.418-3.582-8-8-8s-8,3.582-8,8c0,12.353-7.563,26.659-22.478,42.519
		c-14.338,15.246-13.3,36.821-11.458,48.164l-17.118,5.73c-3.837,1.284-6.101,5.276-5.288,9.24
		c0.342,1.664,7.047,37.209-34.609,56.832c-2.396,1.043-4.769,2.046-7.108,2.998c-0.029,0.012-0.055,0.027-0.084,0.039
		c-2.633,0.994-5.418,1.932-8.382,2.8c-29.698,8.699-88.67,10.559-123.139,0.026c-2.89-0.883-5.614-1.828-8.19-2.823
		c-0.031-0.013-0.059-0.03-0.09-0.042c-1.762-0.717-3.544-1.463-5.339-2.233c-43.971-19.906-37.23-55.937-36.899-57.557
		c0.864-3.991-1.416-7.992-5.289-9.283l-17.131-5.71c1.995-11.507,3.223-33.392-11.742-48.357
		c-5.788-5.788-12.62-22.93-14.059-35.274c-3.112-26.698,8.177-61.385,50.234-71.281c4.301-1.012,6.967-5.319,5.955-9.62
		c-1.012-4.301-5.317-6.969-9.62-5.955c-48.949,11.517-66.642,52.853-62.462,88.708c1.656,14.208,9.252,35.351,18.638,44.736
		c13.815,13.815,6.093,39.721,6.02,39.962c-1.297,4.16,0.974,8.593,5.107,9.971l17.908,5.969c-0.26,6.055,0.227,15.306,3.921,25.478
		c0.444,1.221,0.928,2.406,1.431,3.573c-22.694-13.632-41.209-28.034-45.378-37.761c-1.496-3.491-5.245-5.448-8.961-4.685
		c-3.721,0.764-6.392,4.038-6.392,7.837v3.86c-11.952-14.239-22.182-31.068-24.073-44.941c-0.349-2.556-1.909-4.788-4.19-5.993
		s-5.005-1.236-7.312-0.082l-8.185,4.09C21.754,318.41,16,288.509,16,256.057c0-68.426,24.279-127.168,66.611-161.164
		c42.097-33.807,99.854-42.9,171.662-27.024c0.039,0.009,0.078,0.012,0.118,0.02c0.156,0.032,0.314,0.057,0.473,0.08
		c0.109,0.016,0.219,0.033,0.328,0.044c0.141,0.014,0.283,0.021,0.425,0.028c0.131,0.007,0.262,0.014,0.392,0.014
		c0.115,0,0.23-0.007,0.346-0.012c0.158-0.007,0.315-0.015,0.471-0.031c0.094-0.01,0.189-0.025,0.284-0.038
		c0.173-0.024,0.346-0.051,0.516-0.087c0.034-0.007,0.068-0.01,0.102-0.017c71.809-15.876,129.564-6.783,171.662,27.024
		C471.721,128.888,496,187.63,496,256.057C496,288.509,490.246,318.41,483.761,336.99z"/>
	<path d="M152,284.057c-8.822,0-16,7.177-16,16s7.178,16,16,16s16-7.177,16-16S160.822,284.057,152,284.057z"/>
	<path d="M360,284.057c-8.822,0-16,7.177-16,16s7.178,16,16,16s16-7.177,16-16S368.822,284.057,360,284.057z"/>
	<path d="M331.674,357.327c-5.385,3.462-13.772,6.239-23.142,8.411c7.02-7.419,11.469-16.219,11.469-25.682
		c0-17.895-7.222-29.819-21.465-35.441c-11.55-4.559-26.601-4.559-42.535-4.559c-15.138,0-30.792,0-42.562,4.694
		C199.213,310.424,192,322.303,192,340.057c0,9.463,4.449,18.262,11.469,25.682c-9.37-2.173-17.757-4.949-23.142-8.411
		c-3.717-2.389-8.666-1.314-11.056,2.403c-2.389,3.717-1.313,8.666,2.403,11.056c20.498,13.177,68.984,17.271,84.326,17.271
		s63.828-4.093,84.326-17.271c3.716-2.389,4.792-7.339,2.403-11.056C340.34,356.014,335.392,354.939,331.674,357.327z
		 M223.379,361.659C213.605,355.224,208,347.35,208,340.057c0-21.931,13.164-24,48-24c35.558,0,48,1.966,48,24
		c0,7.293-5.605,15.167-15.379,21.603c-9.74,6.413-22.239,10.397-32.621,10.397S233.119,368.073,223.379,361.659z"/>
	<path d="M395.161,228.986c-18.857-9.981-42.812-3.721-70.549,3.528c-20.704,5.411-44.17,11.543-68.612,11.543
		c-24.872,0-46.896-6.249-66.327-11.763c-25.007-7.096-46.603-13.224-65.403-3.314c-3.909,2.06-5.407,6.898-3.347,10.807
		c2.059,3.909,6.897,5.407,10.807,3.347c13.135-6.923,30.982-1.859,53.576,4.552c20.435,5.798,43.597,12.37,70.694,12.37
		c26.498,0,51.021-6.409,72.657-12.063c24.504-6.404,45.666-11.934,59.019-4.866c8.293,4.39,12.324,9.927,12.324,16.929
		c0,4.418,3.582,8,8,8s8-3.582,8-8C416,250.914,412.385,238.103,395.161,228.986z"/>
	<path d="M240,340.057c-4.418,0-8,3.582-8,8v8c0,4.418,3.582,8,8,8s8-3.582,8-8v-8C248,343.638,244.418,340.057,240,340.057z"/>
	<path d="M272,340.057c-4.418,0-8,3.582-8,8v8c0,4.418,3.582,8,8,8s8-3.582,8-8v-8C280,343.638,276.418,340.057,272,340.057z"/>
	<path d="M293.539,397.94c-10.016,8.444-25.102,14.117-37.539,14.117s-27.522-5.673-37.539-14.117
		c-3.378-2.848-8.425-2.417-11.273,0.96c-2.848,3.378-2.417,8.425,0.96,11.273c12.887,10.864,31.67,17.883,47.851,17.883
		s34.964-7.02,47.851-17.883c3.378-2.848,3.808-7.895,0.96-11.273S296.917,395.093,293.539,397.94z"/>
</g>
</svg>