<svg width="225" height="118" viewBox="0 0 225 118" fill="none" xmlns="http://www.w3.org/2000/svg">
<path d="M146.062 117.227H132.358C127.267 117.227 122.585 116.955 118.312 116.409C114.04 115.909 109.29 115.045 104.062 113.818C99.7896 115.045 94.7441 115.909 88.926 116.409C83.1078 116.955 74.4714 117.227 63.0169 117.227C56.7896 117.227 49.4032 117.182 40.8578 117.091C32.3123 117 26.3805 116.727 23.0623 116.273C15.2441 115.045 9.28959 111.25 5.19869 104.886C3.42596 102.295 2.10778 99.1136 1.24414 95.3409C0.425959 91.5227 0.0168677 87.5455 0.0168677 83.4091C0.0168677 81.1364 0.153231 78.8636 0.425959 76.5909C1.51687 69.5 2.85778 63.5909 4.44869 58.8636L4.51687 58.4545L31.3123 66.3636L30.3578 70.4545C28.5396 77.9091 27.6305 82.1136 27.6305 83.0682C27.6305 83.9773 27.8805 84.7045 28.3805 85.25C28.926 85.7955 29.926 86.0682 31.3805 86.0682H69.2896C68.6078 83.2045 68.2669 80.2045 68.2669 77.0682C68.2669 66.9773 71.6078 58.25 78.2896 50.8864C85.1078 43.5227 93.6987 39.8409 104.062 39.8409C114.381 39.8409 122.949 43.5227 129.767 50.8864C136.449 58.25 139.79 66.9773 139.79 77.0682C139.79 80.2045 139.449 83.2045 138.767 86.0682H146.062V117.227ZM104.062 85.3864C104.381 85.3409 104.994 85.1591 105.903 84.8409C106.858 84.4773 107.903 83.9545 109.04 83.2727C110.176 82.5909 111.153 81.6818 111.971 80.5455C112.835 79.3636 113.267 77.9318 113.267 76.25C113.267 74.2955 112.721 72.3409 111.631 70.3864C110.04 67.6136 107.517 66.2273 104.062 66.2273C100.562 66.2273 98.0396 67.6136 96.4941 70.3864C95.4032 72.3409 94.8578 74.2955 94.8578 76.25C94.8578 79.2955 96.2669 81.6591 99.085 83.3409C100.949 84.5227 102.608 85.2045 104.062 85.3864ZM103.926 32.2727L88.0396 16.3864L103.926 0.431818L119.881 16.3864L103.926 32.2727ZM148.098 117.227H142.711L142.643 86.0682H148.029C150.757 86.0682 152.757 85.5682 154.029 84.5682C154.802 83.7955 155.189 82.5 155.189 80.6818V15.7045H183.075L183.143 83.8864C183.052 85.3409 182.893 87.0682 182.666 89.0682C181.757 96.6591 178.598 103.023 173.189 108.159C166.507 114.205 158.143 117.227 148.098 117.227ZM224.677 117.364H196.722V15.7045H224.677V117.364Z" fill="#8B5C4D"/>
</svg>
