<?xml version="1.0" encoding="UTF-8" standalone="no"?>
<svg id="svg2" xmlns:rdf="http://www.w3.org/1999/02/22-rdf-syntax-ns#" xmlns="http://www.w3.org/2000/svg" height="1182pt" width="1605pt" version="1.1" xmlns:cc="http://creativecommons.org/ns#" xmlns:dc="http://purl.org/dc/elements/1.1/" viewBox="0 0 1605 1182">
<g id="g4459" transform="translate(-4e3)">
<path id="rect4456" d="m5354.9 4.8188c-18.652 0.086237-36.93 5.6713-51.236 17.861-6.6496 3.57 0.1792 9.9309-3.4408 14.561-16.32 14.99-41.019 20.339-52.379 40.659-7.96 10.75-13.749 23.14-15.63 36.32-60.449 17.52-123.97 26.129-187.27 25.809-55.32 3.8-112.37 9.3309-166.31-6.7391-33.09 1.83-66.47 1.4994-99.421 5.5594-10.349-20.98-33.939-34.56-57.059-25.27-11.64-16.18-42.791-23.35-51.64-0.95-19.521-3.88-48.66 5.6003-48.35 28.77-31.11 1.66-62.68-7.5406-94.08-6.6406-0.82-14.26-0.98-34.829-18.52-38.359-44.16-11.85-100.77-3.4003-130.74 33.58-12.98-0.43-25.25-6.97-38.579-5-4.2704-12.98-11.36-24.67-17.38-36.88-14.13-20.89-42.26-26.401-65.85-25.041-15.03 1.64-32.93 6.46-39.44 21.6-21.31 5.95-34.33 27.081-39.339 47.481-0.5904 7.9-11.33 2.0791-16.2 3.9391-43.02 10.5-88.27 2.2803-131.55 11.87 0.4 3.76-3.8096 6.1194-0.1 7.8594-26.63 21.42-31.049 65.82-8.4 90.15 59.63 7.72 120.55 7.2803 180.95 4.0203-3.9304 13.17-1.0208 28.54-12.011 38.98-16 22.81-48.19 42.12-41.279 74.27-0.24 12.11 9.8904 1.4897 14.49-1.0703 3.7096 1.88-6.7104 13.991 0.8592 14.811 9.5704 2.64-2.06 25.779 10.13 19.239-9.94 22.41-7.8584 48.851 4.4312 70.161 1.2504 5.42 3.3904 13.469 10.9 12.039 15.3 8.85 7.9896 30.121 21.68 39.411 3.92 5.13 5.0104 14.699 13.879 12.339-7.9488 13.8-9.2304 29.781-12.899 44.991-3.4704 6.94-9.1296 17.23-1.46 23.25-0.3096 6.41-5.6312 12.01-6.4312 18.57 5.5304 13.11-6.3488 25.62-13.418 34.97-4.6504 3.35-4.9216-5.34-9.0312-1.1-24.2 1.31-49.25-8.1112-72.95 0.96876-22.05 4.34-41.69 20.551-47.279 42.761-3.5 0.61-10.96 3.89-5.8096 7.65 8.94 2.04 20.829 4.85 26.889 10.45-11.86 4.36-4.1896 16.469 5.5504 17.489-13.06 2.24-5.1192 17.4 3.6104 20.9-5.3 12.2-3.0704 28.281 8.8392 38.241-1.2 7.14-27.499-3.76-23.63 7.65 20.71 14.17 25.14 40.82 38.63 59.67-14.57 2.44-4.4192 20.32 0.2208 28.32-14.44 11.49 8.3496 24.19 2.5 36.8 1.5496 10.05 14.589 16.469 11.77 27.109 1.3888 10.12 13.99 14.09 14.54 24.48 2.1104 8.88 14.16 15.081 10.4 24.641-16.98 4.8 2.4696 20.27 11.13 23.67-3.9696 15.18 12.301 28.299 25.37 33.759 8.2 10.59 23.919 11.211 32.169 21.841 10.2 11.86 25.122 17.919 40.131 20.919 25.44 11.1 53.479 13.711 80.06 20.811 9.6096 5.59 20.159 10.81 31.259 12.8 21.4 14.5 46.96 21.23 72.05 26 18.32 9.87 39.431 10.639 59.531 13.439 12.34 9.7 33.619-9.0688 41.569 4.5312 33.7-6.88 69.181-7.9212 101.64-20.731 20.15-2.14 39.49-8.3488 53.21-23.869 24.4 0.99 41.951-17.981 63.881-25.061 16.57 0.11 33.05-2.2303 48.91-7.0203 15.17-4.96 30.05 4.5103 45.25 2.2703 31.551-4.54 63.57-1.6191 95.26-1.6891 38.56-19.65 81.25-36.141 109.47-70.661 7.66-6.5 16.64-11.14 24.84-16.87 0.7504 3.8 3.46 9.4706 8.1504 5.9406 14.03-12.54 33.29-0.34 49.52-1.55 17.59-4.79 36.129-4.0594 53.619-9.3594 20.61-3.92 36.29-19.381 49.95-34.081 35.4-15.32 70.321-40.7 83.521-78.45 6.4496-25.48 7.7512-52.93 0.072-78.25-12.119-29.71-30.18-56.809-51.92-80.089-24.17-12.84-38.18-43.43-66.5-47.58-15.07-19.84-40.399-28.12-64.539-25-28.52 3.68-55.921-6.1112-84.241-5.9812-6.3792-11.47-20.981-16.589-24.099-30.169-3-21.75 10.96-40.021 17.52-59.641 8.4296-39.6 43.58-62.06 74.13-83.9 29.67-24.17 60.91-46.85 87.159-74.82 37.93-47.06 80.841-89.359 118.66-136.36 12.65-19.72 32.8-33.161 46.3-51.741 49.82-3.81 100.01-2.6103 149.92-5.1203 6.74-4.26 11.699 7.1706 16.779 0.84062 12.24-14.1 22.82-29.669 32.23-45.759 10.702-18.38-0.3696-39.221 4.2208-58.581 1.74-2.41 6.7592-5.0688 3.7392-8.4188-26.59-22.6-63.1-15.2-95.05-18.95-18.06-0.41-37.76 0.10906-55-3.0109-0.576-46.821-46.848-77.465-91.023-77.261zm-230.4 238.1c1.5528-0.0105 3.1056-0.008 4.6592 0.002 2.072 0.0128 4.1448 0.039 6.2176 0.0641-12.96 3.86-24.3 13.849-35.75 21.589-25.36 23.26-34.161 59.12-59.861 82.15-24.48 18.95-45.9 41.42-68.47 62.53-10.43 13.91-26.829 21.51-43.259 25.75-27.64 20.95-62 32-86.13 57.87-30.47 17.95-50.241 52.271-56.841 85.961 9.0704 5-4.52 12.139-3.4296 19.839-0.9096 6.58-11.77 14.741-2.5408 19.461-7.56 21.47-26.258 41.129-32.818 60.489-22.64-31.92-17.821-74.72-8.2208-110.62 7.86-27.87 1.1304-57.139 5.5208-85.439 1.3296-35.4 5.5488-70.911 1.0392-106.19-5.66-18.78-1.6096-38.369 2.9104-56.909 1.7504-6.42 0.9096-15 8.2096-17.83 2.76-12.43 5.4-25.071 10.1-36.891 4.2296-3.43 21.73 2.9603 20.7-6.0797 78.72-16.82 163.28-1.5309 244.01-12.161 26.68-0.65 53.39-0.47906 80.01-2.9891 4.6352-0.41625 9.2864-0.5638 13.944-0.59531zm-567.75 5.7828c20.931 0.0775 41.825 2.1772 62.241 6.4922-7.7704 20.83-11.641 42.749-15.041 64.709-6.9904 9.3-17.49 16.581-19.79 29.191-5.6 45.84-36.379 84.94-39.779 131.25-15.67 29.44-6.8608 65.151-21.321 94.691-13.05 20.19-20.53 43.89-21.361 67.65-5.3096 10.67-8.14 22.46-14.7 32.53-3.6896-14.26-17.259-22.11-23.639-34.67-0.92-38.53 3.0408-78.219 16.77-114.51 8.7104-29.44 23.52-56.971 28.4-87.531 1.7304-26.05-0.064-52.169-2.94-78.069-2.4112-21.56-12.37-41.441-14.221-63.091 2.84-0.46 7.6608-4.3803-1.0888-2.5703 1.02-13.5 4.1704-26.8 4.0088-40.43 20.561-3.775 41.529-5.7197 62.46-5.6422zm-377.47 194.3c0.5088 2.5057 0.884 5.0842 0.8888 7.8234-0.01-2.7392-0.38-5.3177-0.8888-7.8234zm24.911 42.014c0.1648 1.0163 0.2376 2.0314 0.212 3.0188 0.024-0.98733-0.048-2.0024-0.212-3.0188z" fill="#61594f"/>
<path id="path4" d="m4e3 0v0.82031c0.2-0.2 0.6-0.61031 0.8-0.82031h-0.8zm1355.4 10.323c-6.7643-0.04698-13.46 0.65203-19.883 2.1469-11.07 2.8-23.381 7.75-30.181 16.2 8.07 1.24 25.751-2.2997 24.761 12.37 11.52-7.93 31.11-4.3309 29.35 12.389 13.31 3.26 27.24 20.73 13.63 31.38 21.88 3.66 44.53-3.9097 66.88-1.8297 0.6531-44.249-43.219-72.369-84.556-72.656zm-1091 58.752c-3.7251-0.03001-7.3906 0.12344-10.922 0.41562-10.68 2.25-22.781 5.0091-29.581 14.389 14.91 6.58 32.85-3.0391 46.92 6.2609 2.79 2.62 1.9803 6.4391 1.4203 9.8391 13.96-2.29 28.18 11.18 25.93 25.9 11.57-0.68 23.121-2.1497 34.741-1.7797-3.5-11.34-10.4-21.14-15-32.009-11.5-17.382-33.4-22.854-53.5-23.016zm1114.4 152.93c-16.244-0.23533-33.462 3.7516-49.794 5.9453-62.36 7.25-125.05 10.129-187.58 15.259-3.18 3.52-5.0506 8.3212-9.7406 10.131 1.76 4.79 7.4897 4.51 10.68 1 5.06-6.32 15.6 2.2994 11.7 8.6094-9.81 18.76-24.589 34.129-36.909 51.159-10.22 13.39-19.54 28.681-35.38 35.641-26.67 11.41-37.791 49.89-68.591 53.62-25.23 18.79-48.5 41.529-77.17 55.609-4.9 2.91-10.99 4.8297-14.27 9.7797 10.1 2.76-2.2594 4.78-7.4094 3.4-4.98 6.35-11.83 10.931-17.48 16.641 3.91-1.83 14.059 2.93 6.4094 4.45-7.2 0.21-16.53 1.1603-19.65 8.9203 5.36 3.69 19.03-2.8206 21.33 2.6094-6.77 2.61-17.329 2.5109-24.159-0.93907-7.76 4.56-15.449 9.3188-24.009 12.219 10.08-1.15 20.35-1.6994 30.4 0.0906-9.36 3.61-20.97 2.8894-30.4-0.0906-8.45 4.84-17.601 9.0206-23.331 17.341-20.57 20.63-13.189 53.02-26.769 77.25-9.38 24.77-26.671 46.31-29.491 73.18 8.01 2.45 15.72 8.4197 8.9203 16.83 45.31 18.07 94.5 16.8 142.4 16.8 27.2-2.43 53.269-16.399 78.389-22.439-6.32-3.97-9.4788-15.02-3.5188-20.85 21.47 3.35 36.17-16.8 57.23-15.5 3.64-1.14-0.6497-4.2406-2.1797-5.0906-12.31-7.16-22.281-20.64-20.391-35.5 1.73-21.02 14.601-38.81 20.391-58.72 9.05-28.91 30.739-52.279 56.569-67.419 32.26-23.07 61.671-49.551 92.281-74.711 29.42-31.59 54.909-66.96 86.959-96.02 27.1-34.9 55.85-68.63 87.8-99.1-1.0738-0.055-2.153-0.089-3.2359-0.10469zm-1145.3 28.972c-2.1603-0.0116-4.3221-0.0106-6.4859 0.003-2.69-0.02-5.3706 0.00093-8.0406 0.0609 6.17 9.87 23.621 13.369 20.311 26.939-0.68 1.35-1.4903 2.65-2.2703 3.95-8.67 17.82-17.809 35.911-31.709 50.311-11.81 13.49-13.64 32.509-7.4203 48.919 4.84 13.87 1.7203 29.95 7.6703 43.15 9.3-11.62 30.55-15.279 33.28-31.619 5.14 4.2-1.09 10.329-4 14.089-8.42 7.58-17.21 16.961-28.77 19.161-3.96 0.66-1.1697 6.2597-0.8797 8.9297 7.41 20.24 12.759 41.68 20.559 61.4 4.5-4.83 2.2297-11.26 1.3797-16.98 5.87-8.29 10.731-18.041 12.741-27.941-9.4-4.71-1.1306-15.129 0.01-22.209-7.59-13.74 10.041-24.921 6.4906-38.691 2.94-6.6 7.9306-12 12.641-17.33-2.92-2.41-4.01-6.4106-1.25-9.4406 10.57-13.12 19.7-27.209 31.23-39.509-3.5 0.28-8.0303-2.36-5.6703-6.75 14.82-20.7 46.97-31.06 46.8-60.27-32.166-3.0562-64.208-5.9989-96.614-6.1734zm-0.9359 60.503c5.41 6.39-10.53 17.15-15.72 22.3-3.2 2.16-12.35 14.451-12.52 5.5609 7.55-10.8 21.661-16.041 28.241-27.861zm2.0766 23.633c1.1092 0.20078 0.2772 3.2069-0.186 4.2469-6.95 10.85-18.09 18.12-25.75 28.42-3.87 1.81-5.1203-4.63-1.9203-6.05 8.52-9.17 18.82-16.5 26.75-26.25 0.4913-0.31125 0.8503-0.41352 1.1063-0.36719zm2.9437 29.367c1.41 10.67-15.851 18.38-22.761 27.52 2.41-0.03 22.04-0.63 9.4703 1.35-5.72-0.12-18.08 9.1294-16.1-1.9406 8.22-10.68 22.281-15.45 29.391-26.93zm613.78 162.65c1.7195 0.15805-3.2141 2.9841-4.3953 3.7891 9.96 3.61 23.621 0.43 32.061 5.15-9.32 1.94-23.181 1.2994-33.691-2.3406-4.17-3.06 1.82-5.9291 4.85-6.4891 0.5475-0.1 0.9293-0.13195 1.175-0.10937zm-2.3719 12.188c6.1358-0.12597-10.458 2.4625-7.0922 5.7906 6.63 2.37 15.61 0.91093 21.3 3.9609-7.86-0.55-17.411 1.7091-24.041-3.3609-0.94-4.61 5.1406-5.2197 8.2906-6.3297 0.6238-0.0331 1.1332-0.0525 1.5422-0.0609zm-14.653 25.022c2.28 6.67 21.32 0.62 28.8 5.6-6.42-0.39-33.09 7.39-28.8-5.6zm-5.2 18.72c7.87 5.84 20.59 0.62969 27.85 6.0297-4.28-0.35-31.13 5.9903-27.85-6.0297zm-5.9094 16.38c3.37 6.21 20.009-0.86938 25.809 5.4906-5.64 0.85-32.609 5.2194-25.809-5.4906zm-16 19.011c4.21 5.9 20.899-0.28031 27.759 4.5297-4.79 3.18-33.889 5.7603-27.759-4.5297zm-5.9609 14.989c3.59 9.27 24.44 1.9706 32.77 8.4906-10.39 1.75-22.019 2.1703-32.009-1.8797-3.19-0.99-4.1809-5.1909-0.7609-6.6109z" fill="#574635"/>
<path id="path6" d="m5354.9 4.8188c-18.652 0.086237-36.93 5.6712-51.236 17.861-6.65 3.57 0.1794 9.9309-3.4406 14.561-16.32 14.99-41.02 20.339-52.38 40.659-7.96 10.75-13.75 23.14-15.63 36.32-60.45 17.52-123.97 26.129-187.27 25.809-55.32 3.8-112.37 9.3309-166.31-6.7391-33.09 1.83-66.47 1.4994-99.42 5.5594-10.35-20.98-33.939-34.56-57.059-25.27-11.64-16.18-42.791-23.35-51.641-0.95-19.52-3.88-48.66 5.6003-48.35 28.77-31.11 1.66-62.68-7.5406-94.08-6.6406-0.82-14.26-0.9803-34.829-18.52-38.359-44.16-11.85-100.77-3.4003-130.74 33.58-12.98-0.43-25.25-6.97-38.58-5-4.27-12.98-11.36-24.67-17.38-36.88-14.13-20.89-42.26-26.401-65.85-25.041-15.03 1.64-32.931 6.46-39.441 21.6-21.31 5.95-34.329 27.081-39.339 47.481-0.59 7.9-11.33 2.0791-16.2 3.9391-43.02 10.5-88.27 2.2803-131.55 11.87 0.4 3.76-3.81 6.1194-0.1 7.8594-26.63 21.42-31.05 65.82-8.4 90.15 59.63 7.72 120.55 7.2803 180.95 4.0203-3.93 13.17-1.0209 28.54-12.011 38.98-16 22.81-48.19 42.12-41.28 74.27-0.24 12.11 9.8906 1.4897 14.491-1.0703 3.71 1.88-6.7106 13.991 0.8594 14.811 9.57 2.64-2.0603 25.779 10.13 19.239-9.94 22.41-7.8588 48.851 4.4312 70.161 1.25 5.42 3.39 13.469 10.9 12.039 15.3 8.85 7.9897 30.121 21.68 39.411 3.92 5.13 5.0097 14.699 13.88 12.339-7.95 13.8-9.23 29.781-12.9 44.991-3.47 6.94-9.1294 17.23-1.4594 23.25-0.31 6.41-5.6312 12.01-6.4312 18.57 5.53 13.11-6.3488 25.62-13.419 34.97-4.65 3.35-4.9212-5.34-9.0312-1.1-24.2 1.31-49.25-8.1112-72.95 0.96876-22.05 4.34-41.69 20.551-47.28 42.761-3.5 0.61-10.959 3.89-5.8094 7.65 8.94 2.04 20.829 4.85 26.889 10.45-11.86 4.36-4.19 16.469 5.55 17.489-13.06 2.24-5.1191 17.4 3.6109 20.9-5.3 12.2-3.0709 28.281 8.8391 38.241-1.2 7.14-27.5-3.76-23.63 7.65 20.71 14.17 25.14 40.82 38.63 59.67-14.57 2.44-4.4197 20.32 0.2203 28.32-14.44 11.49 8.35 24.19 2.5 36.8 1.55 10.05 14.59 16.469 11.77 27.109 1.39 10.12 13.991 14.09 14.541 24.48 2.11 8.88 14.16 15.081 10.4 24.641-16.98 4.8 2.4697 20.27 11.13 23.67-3.97 15.18 12.3 28.299 25.37 33.759 8.2 10.59 23.919 11.211 32.169 21.841 10.2 11.86 25.121 17.919 40.131 20.919 25.44 11.1 53.479 13.711 80.059 20.811 11.09 2.4 22.739 4.65 31.259 12.8 21.4 14.5 46.96 21.23 72.05 26 18.32 9.87 39.431 10.639 59.531 13.439 12.34 9.7 33.619-9.0688 41.569 4.5312 33.7-6.88 69.181-7.9212 101.64-20.731 20.15-2.14 39.489-8.3488 53.209-23.869 24.4 0.99 41.951-17.981 63.881-25.061 16.57 0.11 33.049-2.2303 48.909-7.0203 15.17-4.96 30.05 4.5103 45.25 2.2703 31.55-4.54 63.569-1.6191 95.259-1.6891 38.56-19.65 81.25-36.141 109.47-70.661 7.66-6.5 16.641-11.14 24.841-16.87 0.75 3.8 3.46 9.4706 8.15 5.9406 14.03-12.54 33.29-0.34 49.52-1.55 17.59-4.79 36.129-4.0594 53.619-9.3594 20.61-3.92 36.29-19.381 49.95-34.081 35.4-15.32 70.32-40.7 83.52-78.45 6.45-25.48 7.7503-52.93 0.07-78.25-12.12-29.71-30.18-56.809-51.92-80.089-24.17-12.84-38.18-43.43-66.5-47.58-15.07-19.84-40.399-28.12-64.539-25-28.52 3.68-55.921-6.1112-84.241-5.9812-6.38-11.47-20.98-16.589-24.1-30.169-3-21.75 10.96-40.021 17.52-59.641 8.43-39.6 43.58-62.06 74.13-83.9 29.67-24.17 60.909-46.85 87.159-74.82 37.93-47.06 80.841-89.359 118.66-136.36 12.65-19.72 32.8-33.161 46.3-51.741 49.82-3.81 100.01-2.6103 149.92-5.1203 6.74-4.26 11.7 7.1706 16.78 0.84062 12.24-14.1 22.82-29.669 32.23-45.759 10.7-18.38-0.3697-39.221 4.2203-58.581 1.74-2.41 6.7591-5.0688 3.7391-8.4188-26.59-22.6-63.1-15.2-95.05-18.95-18.06-0.41-37.76 0.10906-55-3.0109-0.6-46.5-46.9-77.144-91.1-76.94zm0.4375 5.5047c41.338 0.28711 85.209 28.407 84.556 72.656-22.35-2.08-45 5.4897-66.88 1.8297 13.61-10.65-0.3197-28.12-13.63-31.38 1.76-16.72-17.83-20.319-29.35-12.389 0.99-14.67-16.691-11.13-24.761-12.37 6.8-8.45 19.111-13.4 30.181-16.2 6.4224-1.4948 13.118-2.1939 19.883-2.1469zm-40.975 24.681c4.7322 0.0089 10.988 1.795 7.811 7.1656-14.56 25.49-44.86 35.699-62.48 58.559-8.13 6.56-13.82 15.63-21.75 22.3 0.3-21.55 12.11-41.269 27.35-55.689 15.97-9.83 32.24-19.381 46.17-32.081 0.795-0.165 1.8064-0.25674 2.8984-0.25469zm30.3 6.857c8.6059 0.37686 12.808 15.838 0.9703 15.728-42.44 10.59-61.17 53.229-87.4 83.619-1.83-8.68-1.7409-17.549-2.8609-26.289 19.72-26.5 52.731-40.33 72.411-67.12 3.79-1.69 7.7603-3.09 11.72-4.4 1.8219-1.1594 3.5657-1.6073 5.1594-1.5375zm13.75 16.578c5.36 1.87 16.43 7.14 12.62 14.55-14.55 40.02-67.071 40.54-89.241 74.8-10.07 11.39-7.5894-9.6109-8.7594-15.611 15.05-17.1 26.159-37.599 43.339-52.809 12.18-10.31 28.201-13.65 42.041-20.93zm-1094 10.635c20.115 0.16205 41.945 5.6344 53.488 23.016 4.61 10.87 11.47 20.669 15.02 32.009-11.62-0.37-23.171 1.0997-34.741 1.7797 2.25-14.72-11.97-28.19-25.93-25.9 0.56-3.4 1.3697-7.2191-1.4203-9.8391-14.07-9.3-32.01 0.31906-46.92-6.2609 6.8-9.38 18.901-12.139 29.581-14.389 3.5313-0.29219 7.1968-0.44564 10.922-0.41562zm1107.6 17.925c20.34 11.29 48.741-1.8994 71.041 3.9906 1.43 3.95 7.3791 4.2894 6.2891-0.89062 17.29-0.87 34.41 2.7 51.72 1.95 28.86 2.3 61.769-3.6697 86.859 14.22-7.6 17.56 2.1709 36.4-2.2391 54.37-3.16 11.55-11.61 20.499-17.8 30.459-3.35 5.93-9.0209 10.331-12.111 16.541-75.61 7.42-154.69 0.22938-230.72 14.359-98.93 9.87-198.17 16.549-297.55 18.409-52.92 7.23-106.25 2.5503-159.44 3.5703-28-1.31-55.23 6.6209-82.93 9.0109-3.95 0.92-15.391-1.8703-9.0406 4.2797-13.34 3.55-2.2794-10.67-2.8594-16.13 12.81-29.81 19.359-64.891 7.8094-96.041 33.33-3.74 67.02-4.0203 100.45-4.5203 55.18 16.7 113.55 8.9403 170.11 5.9203 45.65-0.64 91.459-4.3103 136.16-13.87 13.82-6.15 28.82-7.2903 43.38-10.57 1.85 5.33-6.7391 16.77 2.7609 16.9 5.96-4.62 9.54-12.68 16.15-17.05-0.21 10.38 1.0091 21.021 3.2891 31.041 7.32 0.74 9.4409-9.5606 14.461-13.141 0.67 6.76 0.8691 14.791 5.5891 20.111 12.6-0.84 17.33-16.27 27.63-21.98 21.5-19.97 55.1-24.73 71-50.94zm-1154.9 2.52c4.57 2.37 15.699-2.1303 9.7094 5.2797-23.87 22.32-43.649 54.13-40.809 88.17 0.03 5.29 7.6197 8.4291 4.8297 13.839-4.73-0.66-7.17-6.9197-10.2-10.48-3.22-34.01 0.2303-80.949 36.47-96.809zm37.902 2.7828c8.0211-0.0084 14.143 1.9019 8.2484 10.947-28.94 22.99-54.671 58.009-53.341 96.759-6.38-4.25-13.279-9.7894-17.669-16.409-3.56-35.75 19.119-68.44 45.359-90.25 3.7756 0.12687 11.163-1.0404 17.402-1.0469zm223.01 6.4641c13.192-0.07687 26.604 1.0997 37.772 8.4422 10.58 21.16 4.0909 46.411-7.7391 65.811-17.1 33.34-22.23 70.839-23.22 107.81 1.14 7.36-9.4909 23.981 2.8891 24.661 6.54 33.47 15.13 66.91 14.32 101.48 5.65 53.49-28.58 99.17-38.12 149.98-3.67 27.76-10.21 55.429-7.55 83.609 3.49 12.49 16.081 19.191 21.561 30.531 5.37 13.64 3.2894 28.409 10.159 40.689 17.69 38.69 12.86 83.04 22.3 123.82 5.33 26.81-2.5294 58.63 19.441 79.58 11.96 8 1.9403 23.68 7.1703 34.83 3.6 11.28 19.669 13.98 16.989 27.97 5.6 8.64 7.0203 21.09 17.97 25.08 2.84 2.05 13.82 8.47 10.97-0.65-6.83-5.86-16.181-9.35-18.141-19.3-6.21-8.35-2.3991-22.169-14.089-26.789-16.25-10.35 0.9091-35.011-15.361-45.641-22.01-22.03-10.37-55.13-18.93-82.08-7.05-43.63-7.0897-89.29-24.93-130.25 5.91-18.46 16.229-35.26 16.759-55.12-1.46-20.66 7.4706-39.78 15.941-58.08 20.53-29.8 10.059-69.15 26.259-100.73 3.4-37.96 22.99-71.85 35.55-107.42 2.87-16.49 4.0703-37.419 20.17-46.859 8.55-10.37 6.52-24.721 8.85-37.161 6.67-30.7 21.449-58.93 27.109-89.88 4.74-14.43 17.771-25.89 16.961-42.08 0.12-9.07 0.74-24.16-11.05-26.35-9.11-0.14-14.61 11.15-23.92 7.3703 6.88-20.14 32.159-30.781 50.859-20.011 15.76 10.54 18.791 30.301 21.291 47.561 1.45 3.55 5.8503 2.8388 6.4703-0.83124-1.48-21.07-9.0597-45.329-29.68-54.919 6.73-10.46 21.749-12.35 31.889-5.75 19.95 12.34 33.74 36.139 31.1 59.909-0.25 4.37 1.5906 12.639 7.2906 9.3094 2.68-21.62-3.3497-43.94-17.53-61 16.29-1.37 33.949 3.5012 42.159 18.731 23.12 38.13 8.0394 86.59-9.6406 123.28-4.58 34.53-24.839 68.13-22.339 104.7 10.07 55.3-2.3403 111.3-1.0703 166.94-1.51 12.15 0.3994 24.61-3.4906 36.45-10.76 38.84-14.189 84.18 10.431 118.6 4.44 21.98 17.539 41 24.919 62.32 4.05 3.83 6.0503-1.0797 6.5203-4.1797 3.06 2.56 5.9109 6.0294 10.211 6.3594 25.77 2.51 51.539 9.1203 73.269 23.72 14.76 9.72 35.901 10.94 44.241 28.75 3.77 12.59 12.87 22.42 19.6 33.45 3.16 23.56 18.03 42.8 31.35 61.6 10.54 27.7 36.091 43.69 55.341 64.68 19.66 15.85 41.579 31.401 66.909 36.061 6.12 0.38 4.9794 8.0303 11.959 8.4203-6.48 5.8-14.5 9.53-21.33 14.9-28 34.12-69.88 52.839-108.83 71.919-34.37-0.53-69.16-1.8294-103.55 1.5406-28.16-10.79-54.95 7.4397-83.37 4.5297-22.64 4.37-39.47 24.891-63.15 24.841-12.24 1.17-16.98 15.509-28.6 18.409-14.98 4.06-30.88 5.3397-45.18 11.83-23.77 7.62-49.311 7.1709-73.341 13.361-10.05-9.96-27.779-0.01-40.869-0.55-21.36-7.02-45.851-4.2109-66.261-15.611-28.82-5.71-58.009-14.02-81.489-32.53-32.82-12.81-69.381-13.06-101.86-27.15-11.35-3.44-24.09-5.2503-32.6-14.42-17.54-20.95-50.34-23.69-62.62-49.25 9.22-11.36-6.8797-14.77-14.33-19.8-5.08-3.59 4.4497-5.0694 4.4297-9.0594 4.14-14.01-12.939-20.61-12.559-33.8-3.89-7.36-14.3-11.399-12.73-21.259 0.48-11.07-15.201-17.351-11.011-29.191 1.34-8.3-14.329-16.771-5.9094-23.891 8.98-5.96-3.4506-14.279-4.2906-21.739-5.51-10.05 11.71-3.63 10.25-12.1-16.76-16.77-19.639-42.121-37.059-59.141 3.8-0.97 14.369-4.3194 12.459 3.4906 1.4 4.84 6.9912 0.93032 3.4312-2.3297-2.57-6.24 9.62-3.6703 8.2-9.9203-9.47-3.5-15.251-12.901-18.041-22.141 1.58-1.69 8.1606-6.05 2.5906-5.9-8.12-2.16 8.1688-8.2694 2.8188-14.109-5.28-1.07-9.3094-4.8006-12.409-8.9906 4.43-1.57 10.33-4.2197 9.9797-9.8297-3.22-4.96-9.8497-4.94-14.03-8.25 3.95-2.31 12.511-1.3897 9.9906-8.7297-5.29-6.02-13.7-7.6903-19.92-12.17 5.6-0.62 10.489-4.19 15.859-5 22.29 7.71 43.8 18.731 67.87 19.141 9.47 2.12 18-1.8909 21.63-10.961 6.88-20.81 13.39-42.359 27.1-59.909 6.55-7.39 6.8903-17.99 5.7203-27.27 2.32-6.81 7.1206-13.229 5.6906-20.809-7.67-4.27-0.7506-12.251 1.2594-18.211 2.78-16.03 5.9806-32.04 13.591-46.5 2.2-6.66-6.2206-4.9094-9.9906-6.3094-4.1-14.96 16.67-26.951 9.7-41.691 4.31-10.83 18.699-26.6 7.7594-37.65 4.21-8.13 4.8709-16.819 3.2109-25.589 9.22-12.48 4.9194-28.67 17.059-38.97 3.73-2.67 9.5603-11.911 1.7203-12.711 10.7-13.19 19.76-27.569 31.87-39.669 4.32-3.51 4.2794-12.131-4.0406-9.1406 11.97-16.71 35.59-24.16 40.73-46.15 1.73-13.74 13.45-23.41 16.2-36.8 9.38-37.54 26.01-72.52 41.32-107.73 20.01-18.46 48.65-28.691 75.75-28.141 4.2575-0.1225 8.6306-0.28687 13.028-0.3125zm-205.94 2.2922c7.84 7.78 25.03 9.6812 18.83 25.731-36.43 6-57.53 43.399-61.07 77.289-4.12-6.5-7.3491-13.81-12.789-19.25 7.53-28.01 22.63-55.81 46.78-73.02 4.04-2.42 5.8-6.97 8.25-10.75zm49.309 29.756c18.693-0.19628 37.448 1.9688 55.58 5.375-7.12 21.83-17.699 42.63-26.369 64.05-4.22 17.17-7.8903 35.279-16.87 50.819-30.06-0.29-59.46-7.1688-89.62-5.2188-52.93-6.53-106.01 6.6491-158.83-1.1609-19.89-2.15-40.571-0.30031-59.991-4.9703-18.21-20.71-15.8-60.859 7.6-74.839 1.5-1.55 1.7509-5.37 3.9609-5.75 2.32-2.07 3.5291-4.6506 3.4891-7.8906 45.52-5.22 91.351-3.0691 136.44-10.339-1.68 21.68-9.6109 50.179 12.989 63.389 5.86 4.41 4.8612-10.27 9.5312-4.55 5.22 7.06 22.929 15.991 17.739-1.7891 6.9 4.75 7.8806 15.629 13.241 22.359 1.58-0.28 3.1297-0.74 4.6797-1.15 0.79-34.1 16.36-75.631 53-85.191 11.021-2.0588 22.214-3.026 33.43-3.1438zm206.8 9.4141c35.7 2.45 71.221 9.9497 107.16 8.1297 3.03-4.57 15.559-11.249 16.219-1.8891 8.92 25.66-17.419 42.99-18.989 67.12-1.72 12.44-7.9997 23.479-11.83 35.289-2.75-0.1-5.66-0.70969-7.95-2.2797-39.35-4.14-79.63-7.4197-118.82 1.3203 0.32-7.02 0.6894-15.91 3.7594-21.63 3.56-30.92 23.97-56.181 30.45-86.061zm850.58 81.775c1.0829 0.0157 2.1621 0.0497 3.2359 0.10469-31.95 30.47-60.7 64.2-87.8 99.1-32.05 29.06-57.539 64.43-86.959 96.02-30.61 25.16-60.021 51.641-92.281 74.711-25.83 15.14-47.519 38.509-56.569 67.419-5.79 19.91-18.661 37.7-20.391 58.72-1.89 14.86 8.0806 28.34 20.391 35.5 1.53 0.85 5.8197 3.9506 2.1797 5.0906-21.06-1.3-35.76 18.85-57.23 15.5-5.96 5.83-2.8012 16.88 3.5188 20.85-25.12 6.04-51.189 20.009-78.389 22.439-47.9 0-97.09 1.27-142.4-16.8-12.16-0.04-26.731 0.44-35.611-8.6-0.11-10.71 2.4-25.94 14.3-29.3 5.09-5.5 8.6806-12.45 11.841-19.1 0.67-9.92 17.04-14.929 14.12-25.339-17.43-9.43 7.1294-27.071 4.4594-40.461-5.97-5.3 13.65-14.999 2.1203-18.119 10.26-24.74 24.539-49.1 47.659-63.8 25.6-23.81 59.031-35.561 86.941-56.031 18.72-3.9 34.791-14.439 46.841-29.169 21.34-20 41.46-41.451 64.88-59.131 33.48-29 42.56-83.719 88.03-98.269 4.69-1.81 6.5606-6.6112 9.7406-10.131 62.53-5.13 125.22-8.0094 187.58-15.259 16.331-2.1938 33.549-6.1806 49.794-5.9453zm-249.64 20.922c2.0717 0.0128 4.1448 0.0391 6.2172 0.0641-12.96 3.86-24.3 13.849-35.75 21.589-25.36 23.26-34.161 59.12-59.861 82.15-24.48 18.95-45.9 41.42-68.47 62.53-10.43 13.91-26.829 21.51-43.259 25.75-27.64 20.95-62 32-86.13 57.87-30.47 17.95-50.241 52.271-56.841 85.961 9.07 5-4.5197 12.139-3.4297 19.839-0.91 6.58-11.771 14.741-2.5406 19.461-7.56 21.47-26.259 41.129-32.819 60.489-22.64-31.92-17.82-74.72-8.2203-110.62 7.86-27.87 1.1303-57.139 5.5203-85.439 1.33-35.4 5.5491-70.911 1.0391-106.19-5.66-18.78-1.6091-38.369 2.9109-56.909 1.75-6.42 0.9094-15 8.2094-17.83 2.76-12.43 5.4-25.071 10.1-36.891 4.23-3.43 21.73 2.9603 20.7-6.0797 78.72-16.82 163.28-1.5309 244.01-12.161 26.68-0.65 53.391-0.47907 80.011-2.9891 6.18-0.555 12.388-0.63218 18.603-0.59375zm-572.41 5.7813c20.931 0.0775 41.826 2.1772 62.241 6.4922-7.77 20.83-11.641 42.749-15.041 64.709-6.99 9.3-17.489 16.581-19.789 29.191-5.6 45.84-36.38 84.94-39.78 131.25-15.67 29.44-6.8603 65.151-21.32 94.691-13.05 20.19-20.531 43.89-21.361 67.65-0.14 15.75-6.9894 29.759-13.509 43.639-0.59-3.69-0.9906-7.3894-1.1906-11.109-3.69-14.26-17.259-22.11-23.639-34.67-0.92-38.53 3.0403-78.219 16.77-114.51 8.71-29.44 23.52-56.971 28.4-87.531 1.73-26.05-0.061-52.169-2.9406-78.069-2.41-21.56-12.37-41.441-14.22-63.091 2.84-0.46 7.6609-4.3803-1.0891-2.5703 1.02-13.5 4.1694-26.8 4.0094-40.43 20.56-3.775 41.528-5.7197 62.459-5.6422zm-337.17 0.81718c3.1379 0.0492 5.9329 0.43094 7.4141 1.4547 34.62-0.22 68.79 2.9103 103.1 6.1703 0.17 29.21-31.98 39.57-46.8 60.27-2.36 4.39 2.1703 7.03 5.6703 6.75-11.53 12.3-20.66 26.389-31.23 39.509-2.76 3.03-1.67 7.0306 1.25 9.4406-4.71 5.33-9.7006 10.73-12.641 17.33 3.55 13.77-14.081 24.951-6.4906 38.691-1.14 7.08-9.4094 17.499-0.01 22.209-2.01 9.9-6.8706 19.651-12.741 27.941 0.85 5.72 3.1203 12.15-1.3797 16.98-4.97 5.25-6.99 11.789-7.85 18.759-8.2-6.92-2.5297-21.3-13.58-25.53 1-7.61-4.4706-17.99-13.341-16.4-11.63 0.52-0.48-17.56-10.85-20.18 0.78-11.3-5.32-19.68-3.1-30.75-8.57-12.69 5.7609-26.37 4.9609-40.13-4.67-2.39-5.2197 10.269-7.6297 3.6391-0.79-10.34-9.0206-16.439-4.2906-26.739-0.61-8.93-10.769 0.27938-15.109 2.1094-5.42-45.67 62.659-62.25 50.589-110.42 2.6437-0.34375 8.8265-1.1867 14.056-1.1047zm17.395 24.72c-2.2749 0.16315-5.0481 2.2322-3.8218 4.8141-12.25 14.03-27.339 25.591-38.759 40.291-3.23 3.16 0.1103 7.5603 3.9703 5.0703 8.35-15.02 26.56-28.111 38.63-42.491 0.78-1.3 1.5903-2.6 2.2703-3.95 0.9494-2.835-0.5196-3.8613-2.2891-3.7344zm-4.4312 37.234c-6.58 11.82-20.691 17.061-28.241 27.861 0.17 8.89 9.3203-3.4009 12.52-5.5609 5.19-5.15 21.13-15.91 15.72-22.3zm2.0766 23.633c-0.256-0.0463-0.615 0.0559-1.1063 0.36719-7.93 9.75-18.23 17.08-26.75 26.25-3.2 1.42-1.9497 7.86 1.9203 6.05 7.66-10.3 18.8-17.57 25.75-28.42 0.4632-1.04 1.2952-4.0461 0.186-4.2469zm90.764 6.2969c-14.76 6.27-29.89 15.531-39.27 28.591 3.81 5.2 14.61 1.3406 20.85 0.84062 0.13-6.5-11.36-1.3006-16.03-1.9906 8.93-9.5 19.979-17.081 31.109-23.741 2.17 0.19 5.8706-2.87 3.3406-3.7zm-87.82 23.07c-7.11 11.48-21.171 16.25-29.391 26.93-1.98 11.07 10.38 1.8206 16.1 1.9406 12.57-1.98-7.0603-1.38-9.4703-1.35 6.91-9.14 24.171-16.85 22.761-27.52zm1.25 28.211c-2.73 16.34-23.98 19.999-33.28 31.619 0.13 0.41 0.3794 1.2212 0.5094 1.6312 11.56-2.2 20.35-11.581 28.77-19.161 2.91-3.76 9.14-9.8891 4-14.089zm47.589 4.5688c-7.85 9.42-18.229 17.531-23.289 28.911 0.4 9.86 16.87 1.64 20.5 4.45-7.13 6.01-25.77 26.989-4.4 25.609-5.17 6.45-17.391 10.95-15.541 20.05 7.11 2.06 15.96 0.56969 23.37-1.3203-2.91-5.44-12.329-0.0594-17.209-1.9594 5.63-7.05 14.15-11.37 18.95-19.15-0.86-6.13-8.5612-3.1897-12.681-4.8797 4.25-9.1 16.581-14.21 16.841-24.68-7.56-2.85-15.97 2.1494-24 0.80938 3.47-8.86 19.159-21.521 17.459-27.841zm328.35 9.7734c-0.3467-0.0201-0.7959 0.025-1.3641 0.14687-15.54 16.07-25.63 36.42-39.32 53.9 18.98-8.01 23.69-31.919 36.97-46.089 0.8428-1.4953 7.0652-7.7635 3.7141-7.9578zm96.566 18.147c-1.94 13.41-10.9 23.991-18.27 34.761 13.01-0.19 25.71-27.091 18.27-34.761zm2.8391 24.861c-2.7 9.51-12.779 18.36-11.039 28.03 6.79-6.07 14.929-19.37 11.039-28.03zm-112.77 12.933c-0.4723-0.0482-1.261 0.23906-2.4532 0.97656-6.68 10.17-20.891 16.29-22.981 28.98 6.89-5.41 12.361-12.339 19.041-17.989 2.2612-1.6706 8.9439-11.707 6.3938-11.967zm309.62 5.3141c-5.9746 0.046-11.95 0.49688-17.919 0.80312 2.67 5.86 15.069 1.5488 21.259 3.0688 5.15 1.38 17.509-0.64 7.4094-3.4-3.5812-0.38251-7.1652-0.49948-10.75-0.47188zm-196.8 5.1c-4.31 6.68-10.399 13.35-10.359 21.68 6.98-2.87 13.639-17.7 10.359-21.68zm-433.6 13.659c-3.74 6.85-5.4003 16.24-12.82 21.95-6.54 7.41 7.3306 8.5503 11.941 8.1203-6.06 2.43-10.571 11.799-1.1906 12.259-8.58 5.17-5.6594 14.301 3.3906 16.591-7.03 4.74-12.21 17.93-0.25 19.43-5.78 3.56-19.001 16.02-5.8609 18.8 0.25 3.23-13.729 10.511-4.0188 14.811 11.82 6.17-1.4903-7.9309 8.8797-9.1109 6.84-3.36 6.8303-13.189-2.8297-11.189 1.85-6.86 13.489-8.5109 12.919-16.361-2.88-2.92-7.6588-1.5294-11.119-3.4594 1.3-6.07 10.039-8.7203 9.0594-15.52-2.58-3.28-7.4303-3.1306-10.12-6.2406 7.15-3.48 12.891-14.03 0.041-12.4 3.36-4.53 11.41-5.7497 12.32-11.78-7.03-1.54-14.101-0.0403-21.161 0.0297 2.93-8.53 17.64-15.81 10.82-25.93zm618.72 1.3719c-1.0133-0.0554-1.9653 0.0553-2.6984 0.39844-3.76 1.13-13.97-2.8394-12.85 4.1406 6.39 0.16 12.829 0.13938 19.259 0.30938 6.2156-1.235 0.6805-4.6082-3.711-4.8484zm-292.63 3.3891c-6.94 3.77-12.001 10.09-17.731 15.4-5.46 8.66-14.359 15.829-17.169 25.769 5.48-2.11 8.8197-7.8988 12.93-12.019 5.66-10.95 16.73-18.16 21.97-29.15zm109.39 2.4188c-1.48 9.17-9.5503 15.701-11.27 24.811 8.54-3.43 16.09-18.991 11.27-24.811zm165 2.79c-0.9335-0.0317-1.4208 3.0347-0.5718 6.8406 6.83 3.45 17.389 3.5491 24.159 0.93907-2.3-5.43-15.97 1.0806-21.33-2.6094-0.7719-3.6766-1.6191-5.1486-2.2579-5.1703zm-9.3702 18.003c-5.0838 0.0575-10.171 0.48125-15.211 1.0562 9.43 2.98 21.04 3.7006 30.4 0.0906-5.025-0.895-10.105-1.2044-15.189-1.1469zm-20.647 12.128c-0.2457-0.0226-0.6275 0.009-1.175 0.10937-3.03 0.56-9.02 3.4291-4.85 6.4891 10.51 3.64 24.371 4.2806 33.691 2.3406-8.44-4.72-22.101-1.54-32.061-5.15 1.1812-0.805 6.1148-3.631 4.3953-3.7891zm-140.9 7.28c-6.77 9.38-12.611 20.05-14.441 31.62 7.41-7.68 12.591-23.4 14.441-31.62zm138.53 4.9094c-0.409 0.008-0.9184 0.0278-1.5422 0.0609-3.15 1.11-9.2306 1.7197-8.2906 6.3297 6.63 5.07 16.181 2.8109 24.041 3.3609-5.69-3.05-14.67-1.5909-21.3-3.9609-3.3656-3.3281 13.228-5.9166 7.0922-5.7906zm-259.09 7.4109c-4.27 2.45-6.6006 7.09-9.8406 10.65-5.63 9.04-12.48 18.901-11.98 29.841 6.68-7.06 8.5291-17.31 13.689-25.42 2.36-5.21 6.2112-9.6403 8.1312-15.07zm244.44 17.611c-4.29 12.99 22.38 5.21 28.8 5.6-7.48-4.98-26.52 1.07-28.8-5.6zm-5.1 18.71c-3.28 12.02 23.57 5.6797 27.85 6.0297-7.26-5.4-19.98-0.18969-27.85-6.0297zm-253.61 15.38c-9.07 7.74-19.831 15.681-23.461 27.491 3.91 6.28 6.0106-8.06 9.9906-9.9 3.31-5.02 15.31-15.661 13.47-17.591zm247.7 1c-6.8 10.71 20.169 6.3406 25.809 5.4906-5.8-6.36-22.439 0.71938-25.809-5.4906zm-556 14.62c-4.5 4.62-0.5906 10.9 2.7594 14.88-8.43 6.07-20.34 5.97-27.78 13.45-3.33 6.01 5.0197 6.3409 6.4297 8.5109-9.04 2.22-26.319 7.19-11.639 16.95-8.91 1.41-17.67 11.34-8.2 17.9-11.9 3.57-2.92 13.509-7.8 20.169 4.75 1.62 15.21-3.9088 9.2797-9.1188-8.19-6.26 5.9097-6.15 8.6797-10.1 1.64-5.2-4.7806-5.75-7.8906-7.8 4.12-5.58 13.661-4.2103 17.811-10.22 0.94-5.12-6.1203-5.2097-9.1703-7.4797 5.65-3.67 15.02-3.8806 18.33-10.341 1.63-5.79-7.4694-4.2806-7.7594-7.6406 7.98-4.3 17.889-5.2197 24.789-11.23 1.72-5.96-3.9991-14.27-7.8391-17.93zm540.02 4.3906c-6.13 10.29 22.969 7.7097 27.759 4.5297-6.86-4.81-23.549 1.3703-27.759-4.5297zm-227.76 4.9188c-5.48 6.19-15.449 11.321-15.409 20.581 6.34-2.53 16.769-17.591 15.409-20.581zm221.8 10.07c-3.42 1.42-2.4291 5.6209 0.7609 6.6109 9.99 4.05 21.619 3.6297 32.009 1.8797-8.33-6.52-29.18 0.77938-32.77-8.4906zm-205.8 6c-6.95 8.45-20.41 14.68-21.38 26.5 8.15-4.24 19.1-19.57 21.38-26.5zm-461.55 15.197c17.936 0.10391 35.931 5.0328 53.497 3.0828-3.92 15.59-9.22 33.411-18.2 47.561-24.52 3-48.24-7.5403-70.77-16.67-10.58-5.31-20.039 3.5897-30.289 4.5297 7.85-23.13 30.949-33.909 53.359-37.659 4.1269-0.63375 8.264-0.86773 12.403-0.84375zm469.69 8.9641c-6.59 8.58-15.93 16.04-19.58 26.43 10.23-3.51 18.91-18.96 19.58-26.43zm477.68 1.6938c9.0761 0.0569 18.113 0.91844 26.894 3.5453 25.34 5.85 51.579-2.2097 76.759 4.2703 13.99 4.6 24.15 15.85 33.42 26.72 4.56 0.19 7.9397-5.8409 12.63-1.8109 17.21 13.83 31.47 32.37 50.32 44.72 19.86 22.51 37.509 46.8 48.639 75.37 12.06 42.41 2.1903 92.66-33.93 119.77-2.4-6.76-3.9903-16.801-8.9203-23.961 11.88-26.92 4.3909-67.959-22.889-80.809 3.56-24.7 13.239-54.82-5.4609-75.8-5.05-4.55-14.479 2.1597-15.109-6.9203-0.75-11.08-11.77-12.479-19.48-7.6391-9.21-15.56-32.03-2.4609-43.87-15.961-18.4-4.25-35.29-19.54-54.62-16.05-2.97 17.67 19.751 25.721 30.361 33.191-20.85-0.67-40.041-9.6203-61.061-9.8203-30.42 1.13-57.75-16.45-87.3-17.35-5.46 5.04 7.0906 3.8997 6.3406 9.0797-14.53 1.54-28.96 4.2906-43.37 6.7906-5.88 1.28 6.0994 10.009-4.2906 6.7391-6.6 1.1-14.329-0.74938-20.269 2.9406-1.86 6.17 7.7594 6.4803 9.7094 10.52-3.31 1.51-9.5297 2.1294-8.7297 7.0594 2.22 4.64 12.36 3.1197 13.8 7.8797-5.55 1.96-13.06 5.3706-10.7 12.941 6.7 7.98 18.849 5.1503 26.609 11.57 8.29 11.15 24.091 10.619 35.361 15.709-22.54 3.52-40.34-16.239-64.05-7.9594-9.41-9.07-22.99-8.2606-35.22-7.0906-13.61 7.6 17.88 3.4909 20.18 4.9609 6.76 0.05 9.3994 9.7991 16.859 8.1891 16.1-3.54 31.871 0.19968 45.581 8.6297 14.11 0.63 28.189-2.049 42.319-1.639 2.91 8.08 11.891 11 19.391 7.1 42.9-5.35 82.37 12.68 124.77 8.85 14 9.45 35.86 3.28 45.72-10.35 4.69-19.66 2.5597-44.041-14.02-58.291-25.66-16-62.061-17.62-80.641-43.37 26.61 2.85 52.101 27.741 81.691 25.211 3.84 10.8 12.86 6.7797 20.18 3.7797 3.23 9.44 6.2903 23.059 18.82 16.059 19.66 22.24 3.2794 54.591 2.9094 80.291 2.52 6.61 5.9403-1.0494 8.2203-2.0594 21.42 16.55 25.58 48.649 15.07 72.519-12.69-10.06-30.57-6.0587-45.22-3.1687-22.43 30.53-27.44 82.779-68.68 96.459-21.18 10.39-48.97-8.61-68.98 7 7.46-18.41-15.331-20.36-29.661-24.47-39.65-13.7-69.129-45.29-97.259-74.7-12.76-27.26-37.621-48.759-42.461-79.559-4.37-12.4-17.669-20.78-19.519-34.28-8.89-19.19-30.25-23.03-47.07-32.12-21.66-14.49-47.24-21.65-72.98-24.02-8.59-0.87-13.441-9.1703-16.611-16.32 0.83-3.8-3.05-8.6497-6.45-4.7797-3.59-5.26-7.66-10.55-9.05-16.88 7.62-3.17 18.54 7.9691 22.25-0.81093 20.03 4.73 39.44 12.87 59.57 17.12 41.62-1.99 85.251 10.471 125.29-5.2094 18.69-4.9 35.76-15.32 55.63-15.27 8.77-8.9-14-10.5-11.7-20.68 20.31 3.97 33.43-16.251 53.13-14.961 7.0044-0.47688 14.088-0.91924 21.147-0.875zm-343.07 41.806c-0.8 9.56-4.62 18.479-6.15 27.859 7.46-4.2 12.22-23.929 6.15-27.859zm-171.45 4.8359c-0.3501-0.003-0.7971 0.0841-1.3609 0.28282-11.81 23.78-21.41 48.72-28.47 74.32 0.27 2.34-0.4503 5.4409 1.8297 6.9609 9.13-25.05 17.84-50.281 27.67-75.091 0.4725-1.9775 2.7825-6.4512 0.3312-6.4734zm41.555 0.14531c-0.1919 0.036-0.4647 0.15251-0.8359 0.36875-9.93 7.55-17.209 19.529-20.559 31.489 10.21-5.27 12.859-18.639 19.709-27.309 0.42-1.1025 3.0297-4.8001 1.6859-4.5484zm-150.37 4.8484c-3.48 14.54-14.501 25.029-21.961 37.059 13.95-5.26 24.931-22.429 21.961-37.059zm562.23 5.4391c17.73 0.63 32.99 11.121 50.45 13.041 20 3.78 43.309-0.79031 60.809 11.13 11.96 1.96 25.85 0.12969 36.6 5.3297-23.67 7.13-31.529 45.651-9.8594 59.081-20.02-4.25-40.591-3.8803-60.991-4.1203-36.84-7.62-77.19 5.839-111.83-12.161-7.37-9.59-19.72-10-30.03-13.95-7.79-8.2 13.021-7.6591 10.691-15.439-4.5-3.13-9.7303-4.7106-14.87-6.3906 2.39-2.61 7.06-2.7491 9.95-5.0891 0.24-5.76-7.3897-5.96-10.38-9.65 8.71-1.1 18.009 0.2 26.389-2.1 7.17-2.52-10.74-9.1209 2.8203-7.1109 12.77-5.22 34.95 1.1897 40.25-12.57zm-789.2 0.68124c-12.01 5.92-20.001 19.56-30.841 28.05-9.32 5.75-5.2688 13.88 4.0312 9.1797-3.89 5.15-5.7706 12.1 0.7594 16.03-4.55 8.85-16.84 27.52 2.3703 27.45-0.98 5.96-14.9 21.289 0.5297 22.609-5.23 7.36-13.78 23.17 3.2 20.87-8.83 7.1-10.909 22.77 4.0406 22.07-1.99 8.03-17.741 13.799-12.561 23.209 11.82 5.42-0.7191 13.2-2.4891 20.57 10.24-2.99 17.91-17.159 7.1797-23.909 7.79-6.86 25.669-26.4 3.9391-27.5 0.68-6.59 8.73-10.531 8.75-17.311-2.47-4.28-7.94-2.66-11.9-4.3 1.87-5.41 13.621-15.79 4.7812-19.8-11.27-1.63 4.7891-11.889 1.6891-18.609-1.88-5.34-8.6091-3.48-12.539-5.85 1.1-8.36 15.92-17.789 6.7-25.459-3.2-1.67-0.3003-4.79 1.2797-6.5 3.43-4.56 6.67-11.99-1.65-12.25 7.23-9.46 19.9-16.43 22.73-28.55zm520.2 17.019c-0.9 13.03-8.84 24.261-11.15 36.861 9.2-6.1 17.85-28.351 11.15-36.861zm-289.04 1.1109c-3.52 12.49-10.769 23.279-15.959 35.009-0.27 4.91 6.49-1.1794 6.8-3.2594 5.69-8.86 14.869-22.01 9.1594-31.75zm-205.62 8.1422c-0.3218 0.002-0.6825 0.0172-1.0859 0.0469-5.94 2.88-12.251 5.6806-17.441 9.6406-3.36 7.16 9.6706 4.9697 13.091 5.0297-2.08 6.7-5.26 13.091-7 19.891 2.09 5.11 8.8494 4.66 12.709 7 8.06-10.81-15.079-2.9306-8.1688-14.291 0.26-6.25 12.579-12.049 6.0188-17.439-16.072 2.5962 11.853-9.9548 1.8765-9.8781zm-134.79 2.9531c-0.9023 0.0438-1.8187 0.31094-2.7547 0.875 2.42 8.63 12.52 11.219 19.23 15.769 6.83 1.1 24.54 9.1603 24.58-2.5297-9.29-0.77-18.829-2.47-27.009-7.15-4.725-0.945-9.1728-7.2006-14.045-6.9641zm1080.2 8.93c15.36 4.58 18.51 21.09 24.2 33.77 7.18 21.82-19.471 35.859-37.181 32.239-0.5-4.77-13.559-5.2797-1.9188-5.2797 29.93-1.23 32.27-43.64 14.9-60.73zm-742.52 11.05c-5.03 7.82-20.87 22.37-9.75 25.58 2.9-8.59 14.46-18.96 9.75-25.58zm304.89 1.5297c0.52 8.67-8.7294 13.26-10.159 21.22 6.97-1.6 17.019-14.61 10.159-21.22zm-203.09 2.15c-4.2 11.81-12.33 22.541-14.1 35.011 5.31 0.32 5.0291-7.9313 7.8391-11.081 1.06-7.39 11.601-17.6 6.2609-23.93zm-434.13 2.5156c-0.9574 0.033-1.9203 0.285-2.8859 0.83438 0.16 7.3 10.809 8.3803 15.109 13.62 3.84 2 13.791 6.1 12.731-1.6-4.27-2.57-9.21-3.9697-13.1-7.1797-3.6644-1.8362-7.7059-5.818-11.855-5.675zm1047.1 6.5953c7.47 1.64 5.1109 12.469-0.1391 14.919-7.48 0.70998-10.451-12.749-3.1406-13.839 1.22 6.25 2.6997 4.0303 3.2797-1.0797zm-386.82 0.1c-1.42 4.65-5.7903 10.139-3.1703 14.919 5.19-2.52 4.3303-12.589 3.1703-14.919zm25.209 5.3c-2.65 5.28-7.4103 10.199-6.4203 16.509 5.88-1.12 9.9303-14.299 6.4203-16.509zm-349.63 1.8812c-0.1399-0.009-0.2909-0.006-0.4531 0.008-1.85 6.25-6.8809 12.02-7.8109 18.12 1.55 6.11 6.1703-1.4903 8.2703 0.67968-2.86 6.1-7.6891 11.79-7.9391 18.8 8.97-5.03 17.419-18.859 13.339-28.139-7.0525 1.6275-1.0686-9.1997-5.4063-9.4688zm-330.8 7.3188c-3.7692 0.14864-6.0062 2.4641-0.65 6.6391-4.74 11.28 7.19 20.81 17.35 21.67 5.76-9.03-14.62-7.3194-15.1-15.609-3.69-9.84 8.6803-2.1513 13.32-2.1313 12.14-2.37-1.4906-9.4797-7.7906-8.4297-2.055-1.5375-4.8681-2.2282-7.1297-2.1391zm1051.1 0.75938c-0.1902 0.2772-0.4003 0.54096-0.6265 0.79376 0.2259-0.25256 0.4365-0.51688 0.6265-0.79376zm-342.84 1.75c-2.65 5.12-10.309 13.78-5.3594 19.05 1.56-5.13 9.0194-15.96 5.3594-19.05zm349.28 2.2156c1.39 0.1792 2.8291 0.24728 4.1531 0.40312-1.3239-0.15592-2.7632-0.22392-4.1531-0.40312zm-618.4 0.82c-6.55 9.4-14.639 19.57-15.239 31.53 3.82 4 4.6094-4.1503 6.0094-6.6203 1.2-7.89 11.63-20.059 9.2297-24.909zm625.85 0.49376c0.3101 0.17512 0.5889 0.3812 0.8312 0.62656-0.2423-0.24536-0.5211-0.45144-0.8312-0.62656zm-22.444 1.0562c-0.2625 0.2128-0.5137 0.43264-0.7485 0.66096 0.2351-0.22864 0.4856-0.44792 0.7485-0.66096zm-123.54 1.7c0.7815-0.01 1.5741 0.0322 2.3453 0.12968 41.21 1.41 83.709 0.35064 123.39 12.491-10.09 2.17-28.169 6.509-36.759-2.261-30.57-2.27-61.99-9.04-92.58-3.4-6.79-4.2525-1.8658-6.8891 3.6047-6.9594zm-804.95 1.9094c-7.15 3.85-3.8406 13.921 3.8594 14.511 7.41 0.91 0.5403 4.7497-0.08 8.1297 3.9-1.41 10.13-4.6594 8.8297-9.6594-4.14-5.16-14.999-5.6913-12.609-12.981zm617.04 14.8c-4.04 7.3-12.93 17.16-10.07 25.77 6.5-3.84 12.61-20.69 10.07-25.77zm-726.35 4.8c-3.59 7.92 8.7506 11.631 14.791 11.961 4.74-8.05-11.971-5.491-14.791-11.961zm446.47 2.4703c-8.5 8.56-16.31 19.32-18.38 31.45 1.92 5.35 5.95-1.64 6.45-4.45 2.69-8.45 12.68-19.79 11.93-27zm-335.09 1.911c-9.08 7.28 16.35 12.88 14.62 3.8797-4.99-3.01-15.79 0.97032-14.62-3.8797zm926.48 0.69216c-1.1436 0.10096-2.1584 1.0066-2.8016 3.0672-4.33 16.52-5.6109 33.971-2.9109 50.841 8.38 17.01 24 29.869 42.3 34.869 10.53 6.43 16.291-9.8994 4.7109-12.959 10.74-6.63 19.17-17.279 25.1-28.659 5.02-15.18-5.8-29.661-17.5-37.931-14.29-0.69-29.42-1.4597-42.8 4.5703 3.711-4.25-2.0142-14.157-6.0984-13.797zm-540.7 11.23c-2.83 11.23-5.8797 22.471-8.1297 33.841-4.67 5.33 3.6694 6.6097 3.9594 2.8297 2.98-11.77 6.7303-26.59 4.1703-36.67zm-381.19 3.711c-4.83 11.33 16.431 13.92 21.841 8.8297-4.33-7.53-16.751-1.7697-21.841-8.8297zm962.21 0.27808c9.0608 0.24024 15.057 9.5157 18.617 17.531 3.92 7.61-1.34 19.47-8.7 23.25 0.75-4.71 4.6597-15.259-3.6703-13.859-11.05-1.15-12.821 17.92-0.6109 16.63 11.42-5.96-3.0994 9.66-7.9094 9.2-20.47-6.96-28.83-30.36-31.9-49.8 9.63-0.64 19.06-3.4506 28.82-2.0906 1.8922-0.64064 3.6752-0.90544 5.3531-0.86096zm-343.89 4.9813c-4.46 2.96-14.639 16.92-5.5391 18.77 1.2-5.72 9.2691-16.03 5.5391-18.77zm-733.29 3.6906c-5.27 11.56 13.01 15.1 20.9 14.02 0.02-9.83-16.53-5.3903-20.9-14.02zm1066.5 2.18c-9.1907-0.19632-12.119 17.975-1.5906 16.934 12.04 4.07 15.091-18.919 3.5109-16.639-0.6662-0.18752-1.3076-0.28224-1.9203-0.29536zm-623.09 7.3344c-7.47 7.89-13.89 17.361-17.3 27.761-3.11 6.15 4.8206 7.9 4.8406 1.75 2.47-9.75 12.239-21.441 12.459-29.511zm299.86 4.85c-2.5 8.18-9.0497 15.071-9.2297 23.811 8.79-2.46 13.08-18.001 9.2297-23.811zm-629.03 4.6141c-0.209 0.0235-0.5116 0.17344-0.9328 0.48592-15.93 12.51 21.14 23.911 23.65 10.911-6.32-4.14-17.259 0.86904-22.769-5.661-1.5662 0.13128 1.5145-5.9006 0.052-5.7359zm923.75 0.0266c9.03 11.16 13.989 25.479 26.009 34.109-12.58-6.13-27.369-18.639-26.009-34.109zm-532.75 1.239c-2.54 5.82-7.9803 12.661-5.0203 18.731 5.39-0.86 5.5503-15.681 5.0203-18.731zm-504.2 7.84c-6.04 11.71 15.251 14.68 23.141 16.3 0.41-1.79 0.5097-3.6194-0.1203-5.3594-7.79-3.27-17.37-4.1406-23.02-10.941zm337.32 1.3c-2.26 12.43-12.649 21.13-19.239 30.5 11.81 2.21 26.039-22.4 19.239-30.5zm115.12 6.1906c-7.36 8.82-15.751 17.54-19.341 28.68-1.22 5.84 5.9 1.3 6-2.1 4.68-8.01 12.521-19.59 13.341-26.58zm-339.11 6.95c-9.65 10.76 12.39 16.579 18.53 10.259-1.96-8.07-20.81-0.61936-18.53-10.259zm226.79 3.539c-5.78 14.58-18.89 24.651-26.08 38.041 13.87-4.74 32.85-24.291 26.08-38.041zm175.84 1.1797c1.28 7.01 4.7703 13.551 5.1703 20.831 8.18-1.93-1.9203-17.251-5.1703-20.831zm608.46 7.3469c5.6687 0.1288 10.669 1.7987 12.894 8.1938 2.98 5.27 8.5797-5.69 9.7297 1.25 1.17 7.74 9.9594 20.399-1.0406 24.109 4.57-23.53-24.119-28.15-40.609-26.68-13.37 11.3-24.891 47.991 2.5094 48.841-5.58 11.4-16.509 11.849-26.819 15.789 0.52-12.61 1.5194-25.68 8.2094-36.75 0.57-12.17 2.5103-34.54 18.22-33.7 4.9 0.23 11.238-1.1818 16.906-1.0531zm-673.97 0.96408c-3.73 4.64-8.5494 8.8094-10.359 14.659 6.84-0.24 15.479-11.479 10.359-14.659zm-447.61 6.6703c-0.72 14.05 23.211 18.449 32.041 13.909-8.84-6.65-23.551-5.0594-32.041-13.909zm345.53 2.25c-8.75 3.49-13 13.189-17.03 21.059-3.45 7.12 4.9597 6.2594 5.7297 1.6094 2.57-7.46 12.03-16.479 11.3-22.669zm-292.1 2.76c-8.33 12.03 20.15 17.52 25.48 11.13-7.06-6.19-22.41-2.3497-25.48-11.13zm54.709 2.8703c-2.65 11.51 21.37 13.129 24.07 5.189-7.07-3.69-17.72 1.471-24.07-5.189zm245.38 3.3c-5.21 9.15-19.19 16.49-16.12 27.62 6.73-5.58 20.59-19.45 16.12-27.62zm208.03 5.8594c-3.02 6.26-10.62 11.3-10.22 18.73 5.6-0.37 14.37-15.54 10.22-18.73zm-450 9.22c-15.99 15.34 18.4 24.26 22.7 8.6297-9.08 3.13-28.04 3.9203-22.7-8.6297zm451.99 0.70624c-0.2986-0.0154-0.6354 0.008-1.0141 0.0734-0.54 3.5-4.7294 9.8197-0.3594 11.83 1.6781-2.8125 5.8515-11.672 1.3735-11.903zm546.12 1.025c0.5731 0.0282 1.1688 0.13776 1.775 0.33904 8.08 1.43-3.6309 12.939-7.4609 6.889-1.295-3.675 1.6742-7.4262 5.6859-7.2281zm-748.98 4.3594c-7.41 8.01-17.69 16.97-15.37 29.18 2.4 4.73 10.37-0.67096 6.0703-3.911 0.65-8.57 9.71-18.939 9.3-25.269zm713 11.95c6.76 6.75-7.9806 23.56-0.3406 30.6-8.24 4.18-17.59 5.0906-26.35 7.6906 9.77-12.12 18.891-24.771 26.691-38.291zm-495.26 0.25936c-1.93 4.24-7.46 12.241-1.25 15.411 1.96-4.8 4.52-10.651 1.25-15.411zm-211.79 5.6c-6.68 1.32-20.32 20.311-9.1203 20.031 0.48-5.52 17.83-20.211 9.1203-20.031zm220 9.99c-1.2 3.92-7.0006 14.05 0.4594 13.68 2.27-3.23 4.8106-13.88-0.4594-13.68zm-208 5.96c-4.16 16.68-16.94 28.871-29.97 39.061 15.22 2.1 39.32-24.511 29.97-39.061zm219.81 3.7813c-2.53 5.04-4.4788 11.92-0.9188 16.9 6.22-1.24 5.0488-13.85 0.9188-16.9z"/>
<g>
<path id="path10" d="m5314.4 35.005c-1.092-0.0021-2.1034 0.08969-2.8984 0.25469-13.93 12.7-30.2 22.251-46.17 32.081-15.24 14.42-27.05 34.139-27.35 55.689 7.93-6.67 13.62-15.74 21.75-22.3 17.62-22.86 47.92-33.069 62.48-58.559 3.1768-5.3706-3.0788-7.1567-7.811-7.1656zm30.2 6.857c-1.5937-0.06979-3.3375 0.37812-5.1594 1.5375-3.96 1.31-7.9303 2.71-11.72 4.4-19.68 26.79-52.691 40.62-72.411 67.12 1.12 8.74 1.0309 17.609 2.8609 26.289 26.23-30.39 44.96-73.029 87.4-83.619 11.838 0.10969 7.6356-15.351-0.9703-15.728zm13.75 16.578c-13.84 7.28-29.861 10.62-42.041 20.93-17.18 15.21-28.289 35.709-43.339 52.809 1.17 6-1.3106 27.001 8.7594 15.611 22.17-34.26 74.691-34.78 89.241-74.8 3.81-7.41-7.2603-12.68-12.62-14.55zm-1141.3 31.08c-36.24 15.86-39.69 62.799-36.47 96.809 3.03 3.56 5.47 9.8197 10.2 10.48 2.79-5.41-4.7997-8.5491-4.8297-13.839-2.84-34.04 16.939-65.85 40.809-88.17 5.99-7.41-5.1394-2.9097-9.7094-5.2797zm37.902 2.7828c-6.2387 0.0065-13.626 1.1737-17.402 1.0469-26.24 21.81-48.919 54.5-45.359 90.25 4.39 6.62 11.289 12.159 17.669 16.409-1.33-38.75 24.401-73.769 53.341-96.759 5.895-9.045-0.2273-10.955-8.2484-10.947zm17.069 8.7563c-2.45 3.78-4.21 8.33-8.25 10.75-24.15 17.21-39.25 45.01-46.78 73.02 5.44 5.44 8.6691 12.75 12.789 19.25 3.54-33.89 24.64-71.289 61.07-77.289 6.2-16.05-10.99-17.951-18.83-25.731zm860.91 615.95c18.58 25.75 54.981 27.37 80.641 43.37 16.58 14.25 18.71 38.631 14.02 58.291-9.86 13.63-31.72 19.8-45.72 10.35-42.4 3.83-81.87-14.2-124.77-8.85-7.5 3.9-16.481 0.98-19.391-7.1-14.13-0.41-28.209 2.269-42.319 1.639-13.71-8.43-29.481-12.17-45.581-8.6297 0.67 41.51 32.99 77.301 65.17 101.89 6.51 9.7 21.071 5.3197 26.161 16.83 9.81 17.11 28.74 25.74 40.2 41.82 7.36 12.3 26.31 7.7297 30.98 22.03 15.27 6.09 33.31 1.35 48.65 7.35 5.56 1.47-0.9 10.63 4.95 10.1 41.24-13.68 46.25-65.929 68.68-96.459 14.65-2.89 32.53-6.8913 45.22 3.1687 10.51-23.87 6.3497-55.969-15.07-72.519-2.28 1.01-5.7003 8.6694-8.2203 2.0594 0.37-25.7 16.751-58.051-2.9094-80.291-12.53 7-15.59-6.6194-18.82-16.059-7.32 3-16.34 7.0203-20.18-3.7797-29.59 2.53-55.081-22.361-81.691-25.211zm41.08 68.031c-0.58 5.11-2.0597 7.3297-3.2797 1.0797-7.31 1.09-4.3394 14.549 3.1406 13.839 5.25-2.45 7.6091-13.279 0.1391-14.919zm0.7328 49.992c4.0842-0.3604 9.8094 9.5469 6.0984 13.797 13.38-6.03 28.51-5.2603 42.8-4.5703 11.7 8.27 22.52 22.751 17.5 37.931-5.93 11.38-14.36 22.029-25.1 28.659 11.58 3.06 5.8191 19.389-4.7109 12.959-2.13 9.39-12.859 11.371-20.539 7.411-29.41-3.62-53.191-33.261-46.741-63.141-1.59-16.31 6.7106-40.17 27.891-29.98 0.6432-2.0606 1.658-2.9662 2.8016-3.0672zm76.623 114.1c-4.0117-0.19816-6.9809 3.5531-5.6859 7.2281 3.83 6.05 15.541-5.459 7.4609-6.889-0.6062-0.20128-1.2019-0.3108-1.775-0.33904z" fill="#ded1bf"/>
<path id="path18" d="m5372 87c-15.85 26.21-49.431 30.971-70.991 50.941-10.3 5.71-15.03 21.14-27.63 21.98-4.72-5.32-4.9191-13.351-5.5891-20.111-5.02 3.58-7.1409 13.881-14.461 13.141-2.28-10.02-3.4991-20.661-3.2891-31.041-6.61 4.37-10.19 12.43-16.15 17.05-9.5-0.13-0.9109-11.57-2.7609-16.9-14.56 3.28-29.56 4.4203-43.38 10.57-44.7 9.56-90.509 13.23-136.16 13.87-56.56 3.02-114.93 10.78-170.11-5.9203-33.43 0.5-67.12 0.78031-100.45 4.5203 11.55 31.15 5.0006 66.231-7.8094 96.041 0.58 5.46-10.481 19.68 2.8594 16.13-6.35-6.15 5.0906-3.3597 9.0406-4.2797 1.13-4.91-8.3297-6.3509-5.8297-12.611 7.13-10.62 22.139-10.67 33.289-13.82 42.8-6.29 86.211-3.8594 129.31-4.8094 45.28-3.44 90.599-4.1994 136.02-3.9594 63.12-8.5 127.79-1.5006 189.61-19.341 92.88-3.37 185.9-9.6494 278.99-7.8094 6.79-6.19 14.861-5.1106 21.361 0.45938 6.19-9.96 14.64-18.909 17.8-30.459 4.41-17.97-5.3609-36.81 2.2391-54.37-25.1-17.89-58-11.92-86.9-14.22-17.31 0.75-34.43-2.82-51.72-1.95 1.09 5.18-4.8591 4.8406-6.2891 0.89062-22.3-5.89-50.7 7.299-71-3.991zm-1050.6 43.816c-11.216 0.11778-22.408 1.085-33.43 3.1438-36.64 9.56-52.21 51.091-53 85.191 22.84 3.09 51.22-2.0003 76.23-1.9203 12.09 2.38 19.94-10.17 21.57-20.45 5.14-6.96 13.941-2.3991 17.841 3.4609 8.67-21.42 19.249-42.22 26.369-64.05-18.131-3.4062-36.887-5.5713-55.58-5.375zm206.8 9.4141c-6.48 29.88-26.89 55.141-30.45 86.061 24.78-13.33 54.11-6.8606 80.78-4.8406 12.8 2.02 26.691-2.1294 38.781 3.2406 7.96 6.16 3.92 18.209-4.5 21.909 2.29 1.57 5.2 2.1797 7.95 2.2797 3.83-11.81 10.11-22.849 11.83-35.289 1.57-24.13 27.909-41.46 18.989-67.12-0.66-9.36-13.189-2.6809-16.219 1.8891-35.94 1.82-71.461-5.6797-107.16-8.1297zm-351.41 0.66093c-45.09 7.27-90.921 5.1191-136.44 10.339 0.04 3.24-1.1691 5.8206-3.4891 7.8906 17.61 9-0.4309 30.6 10.189 43.87 11.72 6.76 18.51 19.309 32.98 21.019 50.07-1.23 100.16-2.7694 150.26-3.7094-5.36-6.73-6.3406-17.609-13.241-22.359 5.19 17.78-12.519 8.8491-17.739 1.7891-4.67-5.72-3.6712 8.96-9.5312 4.55-22.6-13.21-14.669-41.709-12.989-63.389z" fill="#995200"/>
<path id="path24" d="m4462.4 99.059c-26.337 0.11747-53.822 10.278-73.206 28.161-15.31 35.21-31.94 70.19-41.32 107.73-2.75 13.39-14.47 23.06-16.2 36.8-5.14 21.99-28.76 29.44-40.73 46.15 8.32-2.99 8.3606 5.6306 4.0406 9.1406-12.11 12.1-21.17 26.479-31.87 39.669 7.84 0.8 2.0097 10.041-1.7203 12.711-12.14 10.3-7.8394 26.49-17.059 38.97 1.66 8.77 0.9991 17.459-3.2109 25.589 10.94 11.05-3.4494 26.82-7.7594 37.65 6.97 14.74-13.8 26.731-9.7 41.691 3.77 1.4 12.191-0.35062 9.9906 6.3094-7.61 14.46-10.811 30.47-13.591 46.5-2.01 5.96-8.9294 13.941-1.2594 18.211 1.43 7.58-3.3706 13.999-5.6906 20.809 1.17 9.28 0.8297 19.88-5.7203 27.27-13.71 17.55-20.22 39.099-27.1 59.909-3.1221 7.8009-9.8714 11.847-17.724 11.481 5.243 2.0238 8.4664 8.6138 15.234 6.1891 12.09 2.03 21.089-16.559 30.889-2.9094-7.51 9.58-8.9203 22.17-8.6203 34 10.84-8.49 18.831-22.13 30.841-28.05-2.83 12.12-15.5 19.09-22.73 28.55 8.32 0.26 5.08 7.69 1.65 12.25 10.49 0.46 12.36-12.021 15.55-19.441 18.09-51.75 62.84-95.74 55.45-154.52-10.37 1.18 2.9403 15.281-8.8797 9.1109-9.71-4.3 4.2688-11.581 4.0188-14.811-13.14-2.78 0.081-15.24 5.8609-18.8-11.96-1.5-6.78-14.69 0.25-19.43-9.05-2.29-11.971-11.421-3.3906-16.591-9.38-0.46-4.8694-9.8294 1.1906-12.259-4.61 0.43-18.481-0.71031-11.941-8.1203 7.42-5.71 9.0803-15.1 12.82-21.95 6.82 10.12-7.8903 17.4-10.82 25.93 7.06-0.07 14.131-1.5697 21.161-0.0297 4.61-28.36 6.07-57.109 7.05-85.789 1.91-18.42 12.479-34.201 23.439-48.511 8.59-19.63 22.131-37.91 22.961-60.08 15.99-41.69 26.589-85.631 47.409-125.54 8.64-13.16 2.8194-30.519 13.009-42.989 9.95-22.77 34.441-29.891 55.491-38.511 4.73-2.26 6.1797-7.7997 4.4797-12.43-0.8469-0.01719-1.6942-0.0241-2.5438-0.02031zm-299.8 614.75c-1.1789-0.45508-2.4595-0.68187-3.9062-0.52032 1.3251 0.29664 2.6288 0.46078 3.9062 0.52032zm494.25-589.71c-6.1412-0.14249-11.241 2.9684-8.8406 10.573 11.79 2.19 11.17 17.28 11.05 26.35 0.81 16.19-12.221 27.65-16.961 42.08-5.66 30.95-20.439 59.18-27.109 89.88-2.33 12.44-0.3 26.791-8.85 37.161-16.1 9.44-17.3 30.369-20.17 46.859-12.56 35.57-32.15 69.46-35.55 107.42-16.2 31.58-5.7294 70.93-26.259 100.73-8.47 18.3-17.401 37.42-15.941 58.08-0.53 19.86-10.849 36.66-16.759 55.12 17.84 40.96 17.88 86.62 24.93 130.25 8.56 26.95-3.0803 60.05 18.93 82.08 16.27 10.63-0.8891 35.291 15.361 45.641 11.69 4.62 7.8791 18.439 14.089 26.789 17.04-12.53-3.22-29.969-8.7-43.209-7.86-17.75-1.9303-37.791-5.5703-56.441-7.8-29.6-0.4597-61.019-11.78-89.969-2.28-1.52-1.5597-4.6209-1.8297-6.9609-3.16-18.45-2.7497-37.76-4.9297-56.5 5.96-11.79 9.8997-24.569 12.48-37.589 4.52-22.25 17.041-41.991 20.491-64.531 10.45-20.17 20.159-43.029 16.769-66.109-5.16 8.11-7.0091 18.36-13.689 25.42-0.5-10.94 6.3497-20.801 11.98-29.841-4.25-10.37 5.8103-24.399 4.9203-36.439-4.11 4.12-7.4497 9.9088-12.93 12.019 2.81-9.94 11.709-17.109 17.169-25.769 0.37-11.01 4.5906-21.37 5.7906-32.25-6.68 5.65-12.151 12.579-19.041 17.989 2.09-12.69 16.301-18.81 22.981-28.98 2.56-14.06 7.4594-27.74 13.259-40.75 12.71-5.86 6.9006-24.57 15.541-34.48-1.34-36.89 19.569-72.061 18.239-109.71-2.42-17.6 3.6106-35.349 16.691-47.389 9.78-17.02 19.04-36.32 18.27-56.32-8.86-12.63-0.3506-29.199-8.9406-42.259-1.765-5.405-8.9478-8.8012-15.089-8.9438zm-331.52 217.31c2.53 0.83-1.1706 3.89-3.3406 3.7-11.13 6.66-22.179 14.241-31.109 23.741 4.67 0.69 16.16-4.5094 16.03 1.9906-6.24 0.5-17.04 4.3594-20.85-0.84062 9.38-13.06 24.51-22.321 39.27-28.591zm-38.981 55.85c1.7 6.32-13.989 18.981-17.459 27.841 8.03 1.34 16.44-3.6594 24-0.80938-0.26 10.47-12.591 15.58-16.841 24.68 4.12 1.69 11.821-1.2503 12.681 4.8797-4.8 7.78-13.32 12.1-18.95 19.15 4.88 1.9 14.299-3.4806 17.209 1.9594-7.41 1.89-16.26 3.3803-23.37 1.3203-1.85-9.1 10.371-13.6 15.541-20.05-21.37 1.38-2.73-19.599 4.4-25.609-3.63-2.81-20.1 5.41-20.5-4.45 5.06-11.38 15.439-19.491 23.289-28.911zm328.35 9.7734c3.3511 0.19433-2.8713 6.4625-3.7141 7.9578-13.28 14.17-17.99 38.079-36.97 46.089 13.69-17.48 23.78-37.83 39.32-53.9 0.5682-0.12187 1.0174-0.16698 1.3641-0.14687zm-39.214 191.4c1.84 1.93-10.16 12.571-13.47 17.591-3.98 1.84-6.0806 16.18-9.9906 9.9 3.63-11.81 14.391-19.751 23.461-27.491zm-308.2 15.62c3.84 3.66 9.5591 11.97 7.8391 17.93-6.9 6.01-16.809 6.9297-24.789 11.23 0.29 3.36 9.3894 1.8506 7.7594 7.6406-3.31 6.46-12.68 6.6706-18.33 10.341 3.05 2.27 10.11 2.3597 9.1703 7.4797-4.15 6.01-13.691 4.6403-17.811 10.22 3.11 2.05 9.5306 2.6 7.8906 7.8-2.77 3.95-16.87 3.84-8.6797 10.1 5.93 5.21-4.5297 10.739-9.2797 9.1188 4.88-6.66-4.1-16.599 7.8-20.169-9.47-6.56-0.71-16.49 8.2-17.9-14.68-9.76 2.5991-14.73 11.639-16.95-1.41-2.17-9.7597-2.5009-6.4297-8.5109 7.44-7.48 19.35-7.38 27.78-13.45-3.35-3.98-7.2594-10.26-2.7594-14.88zm234.49 28.641c-5.31 10.67-8.14 22.46-14.7 32.53 0.2 3.72 0.6006 7.4194 1.1906 11.109 6.52-13.88 13.369-27.889 13.509-43.639zm276.52 62.469c-3.71 8.78-14.63-2.3591-22.25 0.81093 1.39 6.33 5.46 11.62 9.05 16.88 3.4-3.87 7.28 0.97969 6.45 4.7797 3.17 7.15 8.0209 15.45 16.611 16.32 25.74 2.37 51.32 9.5303 72.98 24.02 16.82 9.09 38.18 12.93 47.07 32.12 8.48 2.83 16.379-3.03 24.909-2.2-2.3-1.47-33.79 2.6391-20.18-4.9609 0.53-11.46 7.5697-25.87-3.0203-35.73-22.85-13.83-50.06-19.13-72.05-34.92-20.13-4.25-39.54-12.39-59.57-17.12zm-670.2 1.79c-4.15 3.42-8.0803 7.1697-11.62 11.23 4.76 8.91 5.3997 18.971 4.9797 28.941 5.35 5.84-10.939 11.949-2.8188 14.109 5.57-0.15-1.0106 4.21-2.5906 5.9 2.79 9.24 8.5706 18.641 18.041 22.141 1.42 6.25-10.77 3.6803-8.2 9.9203 3.56 3.26-2.0312 7.1697-3.4312 2.3297 1.91-7.81-8.6594-4.4606-12.459-3.4906 17.42 17.02 20.299 42.371 37.059 59.141 1.46 8.47-15.76 2.05-10.25 12.1 0.84 7.46 13.271 15.779 4.2906 21.739-8.42 7.12 7.2494 15.591 5.9094 23.891-4.19 11.84 11.491 18.121 11.011 29.191-1.57 9.86 8.8397 13.899 12.73 21.259-0.38 13.19 16.699 19.79 12.559 33.8 0.02 3.99-9.5097 5.4694-4.4297 9.0594 7.45 5.03 23.55 8.44 14.33 19.8 12.28 25.56 45.08 28.3 62.62 49.25 8.51 9.17 21.25 10.98 32.6 14.42 32.48 14.09 69.041 14.34 101.86 27.15 23.48 18.51 52.669 26.82 81.489 32.53 20.41 11.4 44.901 8.5909 66.261 15.611 13.09 0.54 30.819-9.41 40.869 0.55 24.03-6.19 49.571-5.7409 73.341-13.361 14.3-6.49 30.2-7.7697 45.18-11.83 11.62-2.9 16.36-17.239 28.6-18.409 23.68 0.05 40.51-20.471 63.15-24.841 28.42 2.91 55.21-15.32 83.37-4.5297 34.39-3.37 69.18-2.0706 103.55-1.5406 38.95-19.08 80.83-37.799 108.83-71.919-1.77-20.58-27.24-11.781-36.98-2.2312-14.77 16.18-37.621 17.98-54.741 30.25-35.42 35.58-90.62 14.61-134.93 18.1-44.13 6.66-90.25 5.0206-132.23 21.741-15.97 11.68-34.231 24.47-55.091 22.22-14.26-5.03-25.019 8.2-38.639 9.1-16.21 2.56-31.371 9.59-47.741 11.2-34.62-2.26-71.079 2.4703-103.79-12.18-13.37-5.37-28.48-6.2106-40.75-14.241-6.76-3.88-13.401-11.231-22.061-8.1406-8.49 3.96-12.699-8.3894-20.789-9.0094-31.85-4.29-63.341-12.35-93.061-24.93-5.3-2.6-4.5203-9.6903-8.4203-13.57-15.01-11.94-34.439-15.31-51.369-23.42-1.02-7.28-1.6712-15.829-9.0312-20.189-20.4-14.15-21.4-40.87-31.6-61.4-5.17-10.09-4.3006-27.1-18.591-29.32-5.82-0.75-1.9294-8.0397-2.8594-11.78-7.89-1.62-29.181-4.59-23.141-16.3 5.65 6.8 15.23 7.6706 23.02 10.941 6.13-12.04 1.2703-25.181-2.9797-36.961-1.57-17.33-2.1294-35.71-12.109-50.77-4.64-0.02-17.01-7.7087-13.32 2.1313 0.48 8.29 20.86 6.5794 15.1 15.609-10.16-0.86-22.09-10.39-17.35-21.67-8.57-6.68 2.2997-8.6 7.7797-4.5-0.02-3.03 0.01-5.9097 0.059-8.8797-4.3-5.24-14.949-6.3203-15.109-13.62 5.15-2.93 10.231 2.5806 14.741 4.8406-0.31-5.08-0.7303-10.141-0.6703-15.211-6.71-4.55-16.81-7.1388-19.23-15.769 5.99-3.61 11.2 4.9691 16.8 6.0891-0.16-7.81-0.2303-16.74-6.5703-22.42-9.8-7.92-9.2-24.23-21.2-29.86zm380.08 4.8297c-2.7 3.64-8.9491 5.6509-7.0891 11.311 1.72 26.5 12.75 51.3 19 76.9 6.09 24.81-1.4606 51.389 8.6094 75.419 11.37 22.84 0.7194 50.351 10.559 73.431 4.27 4.45 12.971 2.4787 13.281 10.769 1.84 11.75 16.999 8.3503 21.539 18.37 2.68-13.99-13.389-16.69-16.989-27.97-5.23-11.15 4.7897-26.83-7.1703-34.83-21.97-20.95-14.111-52.77-19.441-79.58-9.44-40.78-4.61-85.13-22.3-123.82zm-351.15 118.18c2.82 6.47 19.531 3.911 14.791 11.961-6.04-0.33-18.381-4.041-14.791-11.961zm1.1109 28.961c4.37 8.63 20.92 4.1903 20.9 14.02-7.89 1.08-26.17-2.4603-20.9-14.02zm3.8094 62.22c8.49 8.85 23.201 7.2594 32.041 13.909-8.83 4.54-32.761 0.14064-32.041-13.909zm203.1 197.83c9.61 5.59 20.159 10.81 31.259 12.8-8.52-8.15-20.169-10.4-31.259-12.8z" fill="#745e46"/>
<path id="path26" d="m4478 98.767c-4.3975 0.02563-8.7706 0.19-13.028 0.3125 1.7 4.63 0.2503 10.17-4.4797 12.43-21.05 8.62-45.541 15.741-55.491 38.511-10.19 12.47-4.3694 29.829-13.009 42.989-20.82 39.91-31.419 83.851-47.409 125.54-0.83 22.17-14.371 40.45-22.961 60.08-10.96 14.31-21.529 30.091-23.439 48.511-0.98 28.68-2.44 57.429-7.05 85.789-0.91 6.03-8.9603 7.2497-12.32 11.78 12.85-1.63 7.1094 8.92-0.041 12.4 2.69 3.11 7.5403 2.9606 10.12 6.2406 0.98 6.8-7.7594 9.4503-9.0594 15.52 3.46 1.93 8.2388 0.53938 11.119 3.4594 0.57 7.85-11.069 9.5009-12.919 16.361 9.66-2 9.6697 7.8291 2.8297 11.189 7.39 58.78-37.36 102.77-55.45 154.52-3.19 7.42-5.06 19.901-15.55 19.441-1.58 1.71-4.4797 4.83-1.2797 6.5 9.22 7.67-5.6 17.099-6.7 25.459 3.93 2.37 10.659 0.51 12.539 5.85 3.1 6.72-12.959 16.979-1.6891 18.609 8.84 4.01-2.9112 14.39-4.7812 19.8 3.96 1.64 9.43 0.02 11.9 4.3-0.02 6.78-8.07 10.721-8.75 17.311 21.73 1.1 3.8509 20.64-3.9391 27.5 10.73 6.75 3.0603 20.919-7.1797 23.909 1.77-7.37 14.309-15.15 2.4891-20.57-5.18-9.41 10.571-15.179 12.561-23.209-14.95 0.7-12.871-14.97-4.0406-22.07-16.98 2.3-8.43-13.51-3.2-20.87-15.43-1.32-1.5097-16.649-0.5297-22.609-19.21 0.07-6.9203-18.6-2.3703-27.45-6.53-3.93-4.6494-10.88-0.7594-16.03-9.3 4.7-13.351-3.4297-4.0312-9.1797-0.3-11.83 1.1103-24.42 8.6203-34-9.8-13.65-18.799 4.9394-30.889 2.9094-8.29 2.97-11.261-7.5894-19.141-6.7094-24.07-0.41-45.58-11.431-67.87-19.141-5.37 0.81-10.259 4.38-15.859 5 6.22 4.48 14.63 6.1503 19.92 12.17 2.52 7.34-6.0406 6.4197-9.9906 8.7297 4.18 3.31 10.81 3.29 14.03 8.25 0.35 5.61-5.5497 8.2597-9.9797 9.8297 3.1 4.19 7.1294 7.9206 12.409 8.9906 0.42-9.97-0.2197-20.031-4.9797-28.941 3.54-4.06 7.4703-7.8097 11.62-11.23 12 5.63 11.38 21.939 21.17 29.859 6.34 5.68 6.4103 14.61 6.5703 22.42 8.18 4.68 17.719 6.38 27.009 7.15-0.04 11.69-17.75 3.6297-24.58 2.5297-0.06 5.07 0.3603 10.131 0.6703 15.211 3.89 3.21 8.83 4.6097 13.1 7.1797 1.06 7.7-8.8912 3.6-12.731 1.6-0.05 2.97-0.079 5.8497-0.059 8.8797 6.3-1.05 19.931 6.0597 7.7906 8.4297 9.98 15.06 10.539 33.44 12.109 50.77 4.25 11.78 9.1097 24.921 2.9797 36.961 0.63 1.74 0.5303 3.5694 0.1203 5.3594 0.93 3.74-2.9606 11.03 2.8594 11.78 14.29 2.22 13.421 19.23 18.591 29.32 10.19 20.53 11.239 47.251 31.609 61.391 7.36 4.36 8.0112 12.909 9.0312 20.189 16.93 8.11 36.359 11.48 51.369 23.42 3.9 3.88 3.1203 10.97 8.4203 13.57 29.72 12.58 61.211 20.64 93.061 24.93 8.09 0.62 12.299 12.969 20.789 9.0094 8.66-3.09 15.301 4.2606 22.061 8.1406 12.27 8.03 27.38 8.8706 40.75 14.241 32.71 14.65 69.169 9.9197 103.79 12.18 16.37-1.61 31.531-8.64 47.741-11.2 13.62-0.9 24.379-14.13 38.639-9.1 20.86 2.25 39.121-10.54 55.091-22.22 41.98-16.72 88.1-15.081 132.23-21.741 44.31-3.49 99.51 17.48 134.93-18.1 17.12-12.27 39.971-14.07 54.741-30.25 9.74-9.55 35.21-18.349 36.98 2.2312 6.83-5.37 14.85-9.1 21.33-14.9-6.98-0.39-5.8394-8.0403-11.959-8.4203-25.33-4.66-47.249-20.211-66.909-36.061-19.25-20.99-44.801-36.98-55.341-64.68-13.32-18.8-28.19-38.04-31.35-61.6-6.73-11.03-15.83-20.86-19.6-33.45-8.34-17.81-29.481-19.03-44.241-28.75-21.73-14.6-47.499-21.21-73.269-23.72-4.3-0.33-7.1509-3.7994-10.211-6.3594-0.47 3.1-2.4703 8.0097-6.5203 4.1797-7.38-21.32-20.479-40.34-24.919-62.32-24.62-34.42-21.191-79.76-10.431-118.6 3.89-11.84 1.9806-24.3 3.4906-36.45-1.27-55.64 11.14-111.64 1.0703-166.94-2.5-36.57 17.759-70.17 22.339-104.7 17.68-36.69 32.761-85.15 9.6406-123.28-8.21-15.23-25.869-20.101-42.159-18.731 14.18 17.06 20.21 39.38 17.53 61-5.7 3.33-7.5406-4.9394-7.2906-9.3094 2.64-23.77-11.15-47.569-31.1-59.909-10.14-6.6-25.159-4.71-31.889 5.75 20.62 9.59 28.2 33.849 29.68 54.919-0.62 3.67-5.0203 4.3812-6.4703 0.83124-2.5-17.26-5.5306-37.021-21.291-47.561-18.7-10.77-43.979-0.12907-50.859 20.011 9.31 3.78 14.81-7.5103 23.92-7.3703-4.8-15.21 20.4-12.44 23.93-1.6297 8.59 13.06 0.081 29.629 8.9406 42.259 0.77 20-8.4903 39.3-18.27 56.32-13.08 12.04-19.111 29.789-16.691 47.389 1.33 37.65-19.579 72.821-18.239 109.71-8.64 9.91-2.8306 28.62-15.541 34.48-5.8 13.01-10.699 26.69-13.259 40.75 7.63-4.72-1.2606 9.0106-3.9406 10.991-1.2 10.88-5.4206 21.24-5.7906 32.25 5.73-5.31 10.791-11.63 17.731-15.4-5.24 10.99-16.31 18.2-21.97 29.15 0.89 12.04-9.1703 26.069-4.9203 36.439 3.24-3.56 5.5706-8.2 9.8406-10.65-1.92 5.43-5.7712 9.8603-8.1312 15.07 3.39 23.08-6.3188 45.939-16.769 66.109-3.45 22.54-15.971 42.281-20.491 64.531-2.58 13.02-6.5197 25.799-12.48 37.589 2.18 18.74 1.7697 38.05 4.9297 56.5 7.06-25.6 16.66-50.54 28.47-74.32 4.51-1.59 1.5697 3.9306 1.0297 6.1906-9.83 24.81-18.54 50.041-27.67 75.091 11.32 28.95 3.9797 60.369 11.78 89.969 3.64 18.65-2.2897 38.691 5.5703 56.441 5.48 13.24 25.74 30.679 8.7 43.209 1.96 9.95 11.311 13.44 18.141 19.3 2.85 9.12-8.1303 2.7-10.97 0.65-10.95-3.99-12.37-16.44-17.97-25.08-4.54-10.02-19.699-6.6203-21.539-18.37-0.31-8.29-9.0112-6.3187-13.281-10.769-9.84-23.08 0.8106-50.591-10.559-73.431-10.07-24.03-2.5194-50.609-8.6094-75.419-6.25-25.6-17.28-50.4-19-76.9-1.86-5.66 4.3891-7.6709 7.0891-11.311-6.87-12.28-4.7894-27.049-10.159-40.689-5.48-11.34-18.071-18.041-21.561-30.531-2.66-28.18 3.88-55.849 7.55-83.609 9.54-50.81 43.77-96.49 38.12-149.98 0.81-34.57-7.7803-68.01-14.32-101.48-12.38-0.68-1.7491-17.301-2.8891-24.661 0.99-36.97 6.1203-74.469 23.22-107.81 11.83-19.4 18.319-44.651 7.7391-65.811-11.168-7.3425-24.579-8.5191-37.772-8.4422zm233.26 326.41c7.44 7.67-5.2603 34.571-18.27 34.761 7.37-10.77 16.33-21.351 18.27-34.761zm2.8391 24.861c3.89 8.66-4.2491 21.96-11.039 28.03-1.74-9.67 8.3391-18.52 11.039-28.03zm0.2906 23.33c3.28 3.98-3.3794 18.81-10.359 21.68-0.04-8.33 6.0494-15 10.359-21.68zm1.8797 20.839c4.82 5.82-2.7303 21.381-11.27 24.811 1.72-9.11 9.7903-15.641 11.27-24.811zm-5.8797 40.2c-1.85 8.22-7.0306 23.94-14.441 31.62 1.83-11.57 7.6706-22.24 14.441-31.62zm-130.97 88.95c1.36 2.99-9.0694 18.051-15.409 20.581-0.04-9.26 9.9294-14.391 15.409-20.581zm16 16.07c-2.28 6.93-13.23 22.26-21.38 26.5 0.97-11.82 14.43-18.05 21.38-26.5zm-461.55 15.197c-4.1391-0.024-8.2762 0.21-12.403 0.84375-22.41 3.75-45.509 14.529-53.359 37.659 10.25-0.94 19.709-9.8397 30.289-4.5297 22.53 9.13 46.25 19.67 70.77 16.67 8.98-14.15 14.28-31.971 18.2-47.561-17.566 1.95-35.56-2.9789-53.497-3.0828zm469.69 8.9641c-0.67 7.47-9.3497 22.92-19.58 26.43 3.65-10.39 12.99-17.85 19.58-26.43zm477.68 1.6938c-7.0592-0.0442-14.142 0.39812-21.147 0.875-19.7-1.29-32.82 18.931-53.13 14.961-2.3 10.18 20.47 11.78 11.7 20.68-19.87-0.05-36.94 10.37-55.63 15.27-40.04 15.68-83.671 3.2194-125.29 5.2094 21.99 15.79 49.2 21.09 72.05 34.92 10.59 9.86 3.5503 24.27 3.0203 35.73 12.23-1.17 25.81-1.9794 35.22 7.0906 23.71-8.28 41.51 11.479 64.05 7.9594-11.27-5.09-27.071-4.5594-35.361-15.709-7.76-6.42-19.909-3.5903-26.609-11.57-2.36-7.57 5.15-10.981 10.7-12.941-1.44-4.76-11.58-3.2397-13.8-7.8797-0.8-4.93 5.4197-5.5494 8.7297-7.0594-1.95-4.04-11.569-4.3503-9.7094-10.52 5.94-3.69 13.669-1.8406 20.269-2.9406 10.39 3.27-1.5894-5.4591 4.2906-6.7391 14.41-2.5 28.84-5.2506 43.37-6.7906 0.75-5.18-11.801-4.0397-6.3406-9.0797 29.55 0.9 56.88 18.48 87.3 17.35 21.02 0.2 40.211 9.1503 61.061 9.8203-10.61-7.47-33.331-15.521-30.361-33.191 19.33-3.49 36.22 11.8 54.62 16.05 11.84 13.5 34.66 0.40093 43.87 15.961 7.71-4.84 18.73-3.4409 19.48 7.6391 0.63 9.08 10.059 2.3703 15.109 6.9203 18.7 20.98 9.0209 51.1 5.4609 75.8 27.28 12.85 34.769 53.889 22.889 80.809 4.93 7.16 6.5203 17.201 8.9203 23.961 36.12-27.11 45.99-77.36 33.93-119.77-11.13-28.57-28.779-52.86-48.639-75.37-18.85-12.35-33.11-30.89-50.32-44.72-4.69-4.03-8.0697 2.0009-12.63 1.8109-9.27-10.87-19.43-22.12-33.42-26.72-25.18-6.48-51.419 1.5797-76.759-4.2703-8.7806-2.6269-17.818-3.4884-26.894-3.5453zm-343.07 41.806c6.07 3.93 1.31 23.659-6.15 27.859 1.53-9.38 5.35-18.299 6.15-27.859zm-129.89 4.9812c1.3438-0.25169-1.2659 3.446-1.6859 4.5484-6.85 8.67-9.4994 22.039-19.709 27.309 3.35-11.96 10.629-23.939 20.559-31.489 0.3712-0.21624 0.644-0.33279 0.8359-0.36875zm-150.37 4.8484c2.97 14.63-8.0109 31.799-21.961 37.059 7.46-12.03 18.481-22.519 21.961-37.059zm293.23 23.139c6.7 8.51-1.95 30.761-11.15 36.861 2.31-12.6 10.25-23.831 11.15-36.861zm-289.04 1.1109c5.71 9.74-3.4694 22.89-9.1594 31.75-0.31 2.08-7.07 8.1694-6.8 3.2594 5.19-11.73 12.439-22.519 15.959-35.009zm-205.62 8.1422c9.9762-0.0767-17.948 12.474-1.8765 9.8781 6.56 5.39-5.7588 11.189-6.0188 17.439-6.91 11.36 16.229 3.4806 8.1688 14.291-3.86-2.34-10.619-1.89-12.709-7 1.74-6.8 4.92-13.191 7-19.891-3.42-0.06-16.451 2.1303-13.091-5.0297 5.19-3.96 11.501-6.7606 17.441-9.6406 0.4034-0.0297 0.7641-0.0444 1.0859-0.0469zm945.4 11.89c17.37 17.09 15.03 59.5-14.9 60.73-11.64 0 1.4188 0.50968 1.9188 5.2797 17.71 3.62 44.361-10.419 37.181-32.239-5.69-12.68-8.84-29.19-24.2-33.77zm-742.52 11.05c4.71 6.62-6.85 16.99-9.75 25.58-11.12-3.21 4.72-17.76 9.75-25.58zm304.89 1.5297c6.86 6.61-3.1894 19.62-10.159 21.22 1.43-7.96 10.679-12.55 10.159-21.22zm-203.09 2.15c5.34 6.33-5.2009 16.54-6.2609 23.93-2.81 3.15-2.5291 11.401-7.8391 11.081 1.77-12.47 9.9-23.201 14.1-35.011zm226.12 9.2109c1.16 2.33 2.0197 12.399-3.1703 14.919-2.62-4.78 1.7503-10.269 3.1703-14.919zm25.209 5.3c3.51 2.21-0.5403 15.389-6.4203 16.509-0.99-6.31 3.7703-11.229 6.4203-16.509zm-349.63 1.8812c4.3377 0.26911-1.6462 11.096 5.4063 9.4688 4.08 9.28-4.3691 23.109-13.339 28.139 0.25-7.01 5.0791-12.7 7.9391-18.8-2.1-2.17-6.7203 5.4303-8.2703-0.67968 0.93-6.1 5.9609-11.87 7.8109-18.12 0.1622-0.0141 0.3132-0.0165 0.4531-0.008zm377.46 9.8281c3.66 3.09-3.7994 13.92-5.3594 19.05-4.95-5.27 2.7094-13.93 5.3594-19.05zm-268.95 3.05c2.4 4.85-8.0297 17.019-9.2297 24.909-1.4 2.47-2.1894 10.62-6.0094 6.6203 0.6-11.96 8.6891-22.13 15.239-31.53zm479.87 3.25c-5.4705 0.0702-10.395 2.7069-3.6047 6.9594 30.59-5.64 62.01 1.13 92.58 3.4 8.59 8.77 26.669 4.431 36.759 2.261-39.68-12.14-82.179-11.081-123.39-12.491-0.7712-0.0975-1.5638-0.13968-2.3453-0.12968zm-804.95 1.9094c-2.39 7.29 8.4694 7.8213 12.609 12.981 1.3 5-4.9297 8.2494-8.8297 9.6594 0.62-3.38 7.4897-7.2197 0.08-8.1297-7.7-0.59-11.009-10.661-3.8594-14.511zm617.04 14.8c2.54 5.08-3.5703 21.93-10.07 25.77-2.86-8.61 6.0303-18.47 10.07-25.77zm-280 7.27c0.75 7.21-9.2397 18.55-11.93 27-0.5 2.81-4.53 9.8-6.45 4.45 2.07-12.13 9.8797-22.89 18.38-31.45zm-335.09 1.911c-1.17 4.85 9.6303 0.86968 14.62 3.8797 1.73 9-23.7 3.4003-14.62-3.8797zm385.9 11.92c2.56 10.08-1.1903 24.9-4.1703 36.67-0.29 3.78-8.6294 2.5003-3.9594-2.8297 2.25-11.37 5.2997-22.611 8.1297-33.841zm-381.19 3.711c5.09 7.06 17.511 1.2997 21.841 8.8297-5.41 5.09-26.671 2.5003-21.841-8.8297zm618.32 5.2594c3.73 2.74-4.3391 13.05-5.5391 18.77-9.1-1.85 1.0791-15.81 5.5391-18.77zm-289.92 13.2c-0.22 8.07-9.9894 19.761-12.459 29.511-0.02 6.15-7.9506 4.4-4.8406-1.75 3.41-10.4 9.83-19.871 17.3-27.761zm299.86 4.85c3.85 5.81-0.4397 21.351-9.2297 23.811 0.18-8.74 6.7297-15.631 9.2297-23.811zm-629.03 4.6141c1.4629-0.16472-1.6178 5.8672-0.052 5.7359 5.51 6.53 16.449 1.521 22.769 5.661-2.51 13-39.58 1.599-23.65-10.911 0.4212-0.31248 0.7238-0.4624 0.9328-0.48592zm391 1.2656c0.53 3.05 0.3697 17.871-5.0203 18.731-2.96-6.07 2.4803-12.911 5.0203-18.731zm-167 9.14c6.8 8.1-7.4291 32.71-19.239 30.5 6.59-9.37 16.979-18.07 19.239-30.5zm115.12 6.1906c-0.82 6.99-8.6606 18.57-13.341 26.58-0.1 3.4-7.22 7.94-6 2.1 3.59-11.14 11.981-19.86 19.341-28.68zm-339.11 6.95c-2.28 9.64 16.57 2.1894 18.53 10.259-6.14 6.32-28.18 0.50064-18.53-10.259zm226.79 3.539c6.77 13.75-12.21 33.301-26.08 38.041 7.19-13.39 20.3-23.461 26.08-38.041zm175.84 1.1797c3.25 3.58 13.35 18.901 5.1703 20.831-0.4-7.28-3.8903-13.821-5.1703-20.831zm-65.511 8.311c5.12 3.18-3.5194 14.419-10.359 14.659 1.81-5.85 6.6294-10.019 10.359-14.659zm-102.08 8.9203c0.73 6.19-8.73 15.209-11.3 22.669-0.77 4.65-9.1797 5.5106-5.7297-1.6094 4.03-7.87 8.2797-17.569 17.03-21.059zm-292.1 2.76c3.07 8.78 18.42 4.9397 25.48 11.13-5.33 6.39-33.81 0.90032-25.48-11.13zm54.709 2.8703c6.35 6.66 17 1.499 24.07 5.189-2.7 7.94-26.72 6.321-24.07-5.189zm245.38 3.3c4.47 8.17-9.3903 22.04-16.12 27.62-3.07-11.13 10.91-18.47 16.12-27.62zm208.03 5.8594c4.15 3.19-4.6203 18.36-10.22 18.73-0.4-7.43 7.2003-12.47 10.22-18.73zm-450 9.22c-5.34 12.55 13.62 11.76 22.7 8.6297-4.3 15.63-38.69 6.7103-22.7-8.6297zm451.99 0.70624c4.478 0.23128 0.3046 9.0906-1.3735 11.903-4.37-2.01-0.1806-8.3297 0.3594-11.83 0.3787-0.0656 0.7155-0.0889 1.0141-0.0734zm-202.85 5.3844c0.41 6.33-8.65 16.699-9.3 25.269 4.3 3.24-3.6703 8.641-6.0703 3.911-2.32-12.21 7.9603-21.17 15.37-29.18zm713 11.96c-7.8 13.52-16.921 26.171-26.691 38.291 8.76-2.6 18.11-3.5106 26.35-7.6906-7.64-7.04 7.1006-23.85 0.3406-30.6zm-495.26 0.25936c3.27 4.76 0.71 10.611-1.25 15.411-6.21-3.17-0.68-11.171 1.25-15.411zm-211.79 5.6c8.71-0.18-8.6403 14.511-9.1203 20.031-11.2 0.28 2.4403-18.711 9.1203-20.031zm220 9.99c5.27-0.2 2.7294 10.45 0.4594 13.68-7.46 0.37-1.6594-9.7597-0.4594-13.68zm-208 5.96c9.35 14.55-14.75 41.161-29.97 39.061 13.03-10.19 25.81-22.381 29.97-39.061zm219.81 3.7813c4.13 3.05 5.3012 15.66-0.9188 16.9-3.56-4.98-1.6112-11.86 0.9188-16.9z" fill="#82694f"/>
<path id="path38" d="m4036.8 159.12c-2.21 0.38-2.4609 4.2-3.9609 5.75-23.4 13.98-25.81 54.129-7.6 74.839 19.42 4.67 40.101 2.8203 59.991 4.9703 52.82 7.81 105.9-5.3691 158.83 1.1609 30.16-1.95 59.56 4.9288 89.62 5.2188 8.98-15.54 12.65-33.649 16.87-50.819-3.9-5.86-12.701-10.421-17.841-3.4609-1.63 10.28-9.4803 22.83-21.57 20.45-25.01-0.08-53.39 5.0103-76.23 1.9203-1.55 0.41-3.0997 0.87-4.6797 1.15-50.1 0.94-100.19 2.4794-150.26 3.7094-14.47-1.71-21.26-14.259-32.98-21.019-10.62-13.27 7.4209-34.87-10.189-43.87zm1519 27.338c-3.2219 0.15787-6.4387 1.4747-9.4093 4.1828-93.09-1.84-186.11 4.4394-278.99 7.8094-61.82 17.84-126.49 10.841-189.61 19.341-45.42-0.24-90.739 0.51938-136.02 3.9594-43.1 0.95-86.511-1.4806-129.31 4.8094-11.15 3.15-26.159 3.2003-33.289 13.82-2.5 6.26 6.9597 7.7009 5.8297 12.611 27.7-2.39 54.93-10.321 82.93-9.0109 53.19-1.02 106.52 3.6597 159.44-3.5703 99.38-1.86 198.62-8.5394 297.55-18.409 76.03-14.13 155.11-6.9394 230.72-14.359 3.09-6.21 8.7609-10.611 12.111-16.541-3.6562-3.1331-7.809-4.8452-11.952-4.6422zm-1021 31.641c-12.872 0.0449-25.488 1.9437-37.103 8.1922-3.07 5.72-3.4394 14.61-3.7594 21.63 39.19-8.74 79.47-5.4603 118.82-1.3203 8.42-3.7 12.46-15.749 4.5-21.909-12.09-5.37-25.981-1.2206-38.781-3.2406-14.168-1.0731-29.088-3.4025-43.677-3.3516z" fill="#894a02"/>
<path id="path4423" d="m4219.5 249.52c-5.2297-0.082-11.412 0.76094-14.056 1.1047 12.07 48.17-56.009 64.75-50.589 110.42 4.34-1.83 14.499-11.039 15.109-2.1094-4.73 10.3 3.5006 16.399 4.2906 26.739 2.41 6.63 2.9597-6.0291 7.6297-3.6391 0.8 13.76-13.531 27.44-4.9609 40.13-2.22 11.07 3.88 19.45 3.1 30.75 10.37 2.62-0.78 20.7 10.85 20.18 8.87-1.59 14.341 8.79 13.341 16.4 11.05 4.23 5.3797 18.61 13.58 25.53 0.86-6.97 2.88-13.509 7.85-18.759-7.8-19.72-13.149-41.16-20.559-61.4-0.29-2.67-3.0803-8.2697 0.8797-8.9297-0.13-0.41-0.3794-1.2212-0.5094-1.6312-5.95-13.2-2.8303-29.28-7.6703-43.15-6.22-16.41-4.3897-35.429 7.4203-48.919 13.9-14.4 23.039-32.491 31.709-50.311-12.07 14.38-30.28 27.471-38.63 42.491-3.86 2.49-7.2003-1.9103-3.9703-5.0703 11.42-14.7 26.509-26.261 38.759-40.291-1.9666-4.1406 6.3512-6.9595 6.4062-2.7156 1.5695-12.229-14.693-15.844-20.606-25.303 2.67-0.06 5.3506-0.0809 8.0406-0.0609-1.4812-1.0238-4.2762-1.4055-7.4141-1.4547zm19.98 26.819c-0.068 0.53101-0.1575 1.0712-0.2953 1.6359 0.2125-0.63448 0.3013-1.1753 0.2953-1.6359zm907.32-24.212c-1.6388-0.018-3.2459 0.62937-4.5109 2.2094-3.19 3.51-8.9197 3.79-10.68-1-45.47 14.55-54.55 69.269-88.03 98.269-23.42 17.68-43.54 39.131-64.88 59.131-12.05 14.73-28.121 25.269-46.841 29.169-27.91 20.47-61.341 32.221-86.941 56.031-23.12 14.7-37.399 39.06-47.659 63.8 11.53 3.12-8.0903 12.819-2.1203 18.119 2.67 13.39-21.889 31.031-4.4594 40.461 2.92 10.41-13.45 15.419-14.12 25.339-3.16 6.65-6.7506 13.6-11.841 19.1-11.9 3.36-14.41 18.59-14.3 29.3 8.88 9.04 23.451 8.56 35.611 8.6 6.8-8.41-0.9103-14.38-8.9203-16.83 2.82-26.87 20.111-48.41 29.491-73.18 13.58-24.23 6.1988-56.62 26.769-77.25 5.73-8.32 14.881-12.501 23.331-17.341 8.56-2.9 16.249-7.6588 24.009-12.219-1.43-6.41 0.9297-10.72 2.8297-1.6703 3.12-7.76 12.45-8.7103 19.65-8.9203-6.43-0.17-12.869-0.14938-19.259-0.30938-1.12-6.98 9.09-3.0106 12.85-4.1406 5.65-5.71 12.5-10.291 17.48-16.641-6.19-1.52-18.589 2.7912-21.259-3.0688 9.55-0.49 19.119-1.3512 28.669-0.33124 3.28-4.95 9.3703-6.8697 14.27-9.7797 28.67-14.08 51.94-36.819 77.17-55.609 30.8-3.73 41.921-42.21 68.591-53.62 15.84-6.96 25.16-22.251 35.38-35.641 12.32-17.03 27.099-32.399 36.909-51.159 2.925-4.7325-2.2727-10.765-7.1891-10.819z" fill="#4b3c2e"/>
<path id="path170" d="m4931.4 797.81c-7.9275-0.0505-15.367 4.9344-23.317 2.2813 1.85 13.5 15.149 21.88 19.519 34.28 4.84 30.8 29.701 52.299 42.461 79.559 28.13 29.41 57.609 61 97.259 74.7 14.33 4.11 37.121 6.0603 29.661 24.47 20.01-15.61 47.8 3.39 68.98-7-5.85 0.53 0.61-8.63-4.95-10.1-15.34-6-33.38-1.26-48.65-7.35-4.67-14.3-23.62-9.7297-30.98-22.03-11.46-16.08-30.39-24.71-40.2-41.82-5.09-11.51-19.651-7.1297-26.161-16.83-32.18-24.59-64.5-60.381-65.17-101.89-7.46 1.61-10.099-8.1391-16.859-8.1891-0.5331-0.0519-1.0637-0.0779-1.5922-0.0812zm230.79 37.842c-13.946 0.23664-19.412 18.921-18.095 32.428-6.45 29.88 17.331 59.521 46.741 63.141 7.68 3.96 18.409 1.979 20.539-7.411-18.3-5-33.92-17.859-42.3-34.869-2.7-16.87-1.4191-34.321 2.9109-50.841-3.6403-1.7514-6.9008-2.4975-9.7953-2.4484zm13.795 42.269c-1.36 15.47 13.429 27.979 26.009 34.109-12.02-8.63-16.979-22.949-26.009-34.109z" fill="#c1b5a4"/>
</g>
<path id="path200" d="m5181 853.2c9.63-0.64 19.06-3.45 28.82-2.09 1.07 8.27 12.12 11.77 14.14 20.86 2.7 7.17 11.54 3.37 9.83-4.19 3.92 7.61-1.34 19.47-8.7 23.25 0.75-4.71 4.66-15.26-3.67-13.86-11.05-1.15-12.82 17.92-0.61 16.63 11.42-5.96-3.1 9.66-7.91 9.2-20.47-6.96-28.83-30.36-31.9-49.8m25.37 8.19c-10.66-3-14.74 17.75-3.51 16.64 12.04 4.07 15.09-18.92 3.51-16.64z" fill="#282828"/>
</g>
</svg>
