<svg width="450" height="400" viewBox="0 0 450 400" fill="none" xmlns="http://www.w3.org/2000/svg">
<g clip-path="url(#clip0_108_2)">
<rect width="450" height="320" rx="6" fill="white"/>
<path d="M0 6C0 2.68629 2.68629 0 6 0H444C447.314 0 450 2.68629 450 6V40H0V6Z" fill="#F0F0F0"/>
<path d="M32.9427 27.994C37.899 27.994 41.8855 24.4142 41.8855 19.9975C41.8855 15.5808 37.8774 12 32.9427 12C28.008 12 24 15.5808 24 19.9975C24 24.4142 28.008 27.994 32.9427 27.994Z" fill="#FF5645"/>
<path d="M62.1525 27.994C67.1088 27.994 71.0952 24.4142 71.0952 19.9975C71.0952 15.5808 67.0872 12 62.1525 12C57.2179 12 53.2097 15.5808 53.2097 19.9975C53.2097 24.4142 57.2179 27.994 62.1525 27.994Z" fill="#FFCB3D"/>
<path d="M92.321 27.994C97.2557 27.994 101.263 24.4142 101.263 19.9975C101.263 15.5808 97.2449 12 92.321 12C87.3648 12 83.3782 15.5808 83.3782 19.9975C83.3782 24.4142 87.3863 27.994 92.321 27.994Z" fill="#3ABF7C"/>
<path d="M400 400V320H320C320 369.412 373.333 393.922 400 400Z" fill="white"/>
<rect x="304" y="65" width="110" height="102" rx="4" fill="#8B5C4D"/>
<path d="M369.502 132.353H365.116C363.487 132.353 361.989 132.265 360.622 132.091C359.255 131.931 357.735 131.655 356.062 131.262C354.695 131.655 353.08 131.931 351.218 132.091C349.356 132.265 346.593 132.353 342.927 132.353C340.935 132.353 338.571 132.338 335.836 132.309C333.102 132.28 331.204 132.193 330.142 132.047C327.64 131.655 325.735 130.44 324.425 128.404C323.858 127.575 323.436 126.556 323.16 125.349C322.898 124.127 322.767 122.855 322.767 121.531C322.767 120.804 322.811 120.076 322.898 119.349C323.247 117.08 323.676 115.189 324.185 113.676L324.207 113.545L332.782 116.076L332.476 117.385C331.895 119.771 331.604 121.116 331.604 121.422C331.604 121.713 331.684 121.945 331.844 122.12C332.018 122.295 332.338 122.382 332.804 122.382H344.935C344.716 121.465 344.607 120.505 344.607 119.502C344.607 116.273 345.676 113.48 347.815 111.124C349.996 108.767 352.745 107.589 356.062 107.589C359.364 107.589 362.105 108.767 364.287 111.124C366.425 113.48 367.495 116.273 367.495 119.502C367.495 120.505 367.385 121.465 367.167 122.382H369.502V132.353ZM356.062 122.164C356.164 122.149 356.36 122.091 356.651 121.989C356.956 121.873 357.291 121.705 357.655 121.487C358.018 121.269 358.331 120.978 358.593 120.615C358.869 120.236 359.007 119.778 359.007 119.24C359.007 118.615 358.833 117.989 358.484 117.364C357.975 116.476 357.167 116.033 356.062 116.033C354.942 116.033 354.135 116.476 353.64 117.364C353.291 117.989 353.116 118.615 353.116 119.24C353.116 120.215 353.567 120.971 354.469 121.509C355.065 121.887 355.596 122.105 356.062 122.164ZM356.018 105.167L350.935 100.084L356.018 94.9782L361.124 100.084L356.018 105.167ZM370.153 132.353H368.429L368.408 122.382H370.131C371.004 122.382 371.644 122.222 372.051 121.902C372.299 121.655 372.422 121.24 372.422 120.658V99.8655H381.346L381.368 121.684C381.339 122.149 381.288 122.702 381.215 123.342C380.924 125.771 379.913 127.807 378.182 129.451C376.044 131.385 373.368 132.353 370.153 132.353ZM394.659 132.396H385.713V99.8655H394.659V132.396Z" fill="white"/>
<rect x="272" y="187" width="142" height="15" rx="4" fill="#DACAAD"/>
<rect x="41" y="115" width="192" height="15" rx="4" fill="#DACAAD"/>
<rect x="24" y="142" width="209" height="15" rx="4" fill="#DACAAD"/>
<rect x="24" y="187" width="209" height="15" rx="4" fill="#DACAAD"/>
<rect x="90" y="214" width="143" height="15" rx="4" fill="#DACAAD"/>
<rect x="41" y="241" width="192" height="15" rx="4" fill="#DACAAD"/>
<rect x="24" y="268" width="209" height="15" rx="4" fill="#DACAAD"/>
<rect x="303" y="214" width="111" height="15" rx="4" fill="#DACAAD"/>
<rect x="288" y="241" width="126" height="15" rx="4" fill="#DACAAD"/>
<rect x="332" y="268" width="82" height="15" rx="4" fill="#DACAAD"/>
</g>
<defs>
<clipPath id="clip0_108_2">
<rect width="450" height="400" fill="white"/>
</clipPath>
</defs>
</svg>
